/* XPM */
static const char *zero[] = {
/* columns rows colors chars-per-pixel */
"20 35 26 1 ",
"  c #000000",
". c #1F1F1F",
"X c #292929",
"o c #383838",
"O c #434343",
"+ c #444444",
"@ c #464646",
"# c #474747",
"$ c #5C5C5C",
"% c #646464",
"& c #676767",
"* c #7A7A7A",
"= c #7F7F7F",
"- c #828282",
"; c #888888",
": c #9A9A9A",
"> c #A4A4A4",
", c #B0B0B0",
"< c #B4B4B4",
"1 c #B7B7B7",
"2 c #C4C4C4",
"3 c #DADADA",
"4 c #DBDBDB",
"5 c #ECECEC",
"6 c #F6F6F6",
"7 c #FFFFFF",
/* pixels */
"77777777777777777777",
"77777777777777777777",
"77777777777777777777",
"77777777777777777777",
"77777777777777777777",
"77777777777777777777",
"77777777777777777777",
"77777777777777777777",
"77777777777777777777",
"77777777777777777777",
"77777777777777777777",
"777776&        27777",
"777776&        27777",
"7777%+. :5554O o@,77",
"7777#   >7775#   >77",
"7777#   >73;=X   >77",
"7777#   >72      >77",
"7777#   >72      >77",
"7777#   >72      >77",
"7777#   :51      >77",
"7777#            >77",
"7777#            >77",
"7777#     *54O   >77",
"7777#     -75#   >77",
"7777#     -75#   >77",
"7777#     -75#   >77",
"7777#   $;<75#   >77",
"7777#   >7775#   >77",
"7777%+. :5554O o@,77",
"777776&        27777",
"777776&        27777",
"77777777777777777777",
"77777777777777777777",
"77777777777777777777",
"77777777777777777777"
};
