/* XPM */
static const char *um[] = {
/* columns rows colors chars-per-pixel */
"20 35 61 1 ",
"  c #000000",
". c #010101",
"X c #020202",
"o c #030303",
"O c #040404",
"+ c #050505",
"@ c #070707",
"# c #080808",
"$ c #090909",
"% c #0A0A0A",
"& c #0B0B0B",
"* c #0C0C0C",
"= c #0D0D0D",
"- c #0E0E0E",
"; c #151515",
": c #404040",
"> c #414141",
", c #434343",
"< c #454545",
"1 c #464646",
"2 c #474747",
"3 c #484848",
"4 c #494949",
"5 c #4B4B4B",
"6 c #4C4C4C",
"7 c #4D4D4D",
"8 c #939393",
"9 c #9C9C9C",
"0 c #9D9D9D",
"q c #9E9E9E",
"w c #9F9F9F",
"e c #A0A0A0",
"r c #A4A4A4",
"t c #A6A6A6",
"y c #AAAAAA",
"u c #D6D6D6",
"i c #D9D9D9",
"p c #E6E6E6",
"a c #E7E7E7",
"s c #E9E9E9",
"d c #EAEAEA",
"f c #EBEBEB",
"g c #ECECEC",
"h c #EDEDED",
"j c #EEEEEE",
"k c #EFEFEF",
"l c #F1F1F1",
"z c #F2F2F2",
"x c #F3F3F3",
"c c #F4F4F4",
"v c #F5F5F5",
"b c #F6F6F6",
"n c #F7F7F7",
"m c #F8F8F8",
"M c #F9F9F9",
"N c #FAFAFA",
"B c #FBFBFB",
"V c #FCFCFC",
"C c #FDFDFD",
"Z c #FEFEFE",
"A c #FFFFFF",
/* pixels */
"AAAAAAAAAAAAAAAAAZZA",
"AAAAAAAAAAAAAAAAAZZA",
"AAAAAAAAAAAAAAAAAZZA",
"AAAAAAAAAAAAAAAAAZZA",
"AAAAAAAAAAAAAAAAAZZA",
"AAAAAAAAAAAAAAAAAZZA",
"AAAAAAAAAAAAAAAAAZZA",
"AAAAAAAAAAAAAAAAAZZA",
"CAZbAAZAABAZNAAMAZZA",
"ABnAbNMAnAcAAcBAAZZA",
"BAAAAZVAAAAACAbVAZZA",
"nAAdAAZZe$  <hAAAZZA",
"AAAAcnCA0  X<bnlAZZA",
"AkBA:$ o# %#,pAAAZZA",
"AnAA3@  #   1cAbAZZA",
"AAAMhahh8* &<hxAAZZA",
"AAAAAAAAr.  4fAAAZZA",
"AAAAAAAAr.  4fAAAZZA",
"AAAAAAAAr.  4fAAAZZA",
"AAAAAAAAr.  4fAAAZZA",
"AAAAAAAAr.  4fAAAZZA",
"AAAAAAAAr.  4fAAAZZA",
"AAAAAAAAr.  4fAAAZZA",
"AAAAAAAAr.  4fAAAZZA",
"CAAVZCAZt+  7kCAVAAC",
"ANCAvCAAe   2fZAAZBA",
"MNAACVCVyO+ 2dNCvMMA",
"ZAAjAAAVw   5hAAAAVM",
"AZZAsafz9=  2ukgibZA",
"AmAA>+ .X ;* X .-wAA",
"NmAZ6% oX   +%+ .qAA",
"AAAMACBAAABAAmAAvACN",
"AAAAAAAAAAAAAAAAAMAN",
"ZZZZZZZZZZZZZZZZAVAA",
"AAAAAAAAAAAAAAAAzAAz"
};
