/* XPM */
static const char *dois[] = {
/* columns rows colors chars-per-pixel */
"20 35 31 1 ",
"  c #000000",
". c #0D0D0D",
"X c #2F2F2F",
"o c #3D3D3D",
"O c #434343",
"+ c #464646",
"@ c #474747",
"# c #505050",
"$ c #5C5C5C",
"% c #656565",
"& c #676767",
"* c #7F7F7F",
"= c #828282",
"- c #888888",
"; c #9A9A9A",
": c #A4A4A4",
"> c #A6A6A6",
", c #B0B0B0",
"< c #B9B9B9",
"1 c #BFBFBF",
"2 c #C4C4C4",
"3 c #C7C7C7",
"4 c #D6D6D6",
"5 c #D8D8D8",
"6 c #DBDBDB",
"7 c #E0E0E0",
"8 c #ECECEC",
"9 c #F6F6F6",
"0 c #F8F8F8",
"q c #F9F9F9",
"w c #FFFFFF",
/* pixels */
"wwwwwwwwwwwwwwwwwwww",
"wwwwwwwwwwwwwwwwwwww",
"wwwwwwwwwwwwwwwwwwww",
"wwwwwwwwwwwwwwwwwwww",
"wwwwwwwwwwwwwwwwwwww",
"wwwwwwwwwwwwwwwwwwww",
"wwwwwwwwwwwwwwwwwwww",
"wwwwwwwwwwwwwwwwwwww",
"wwwwwwwwwwwwwwwwwwww",
"wwwwwwwwwwwwwwwwwwww",
"wwwwwwwwwwwwwwwwwwww",
"wwww9&       X5wwwww",
"wwww9&       X5wwwww",
"www@   ;8886O.o+,www",
"www@   :www8@   :www",
"www@   :www8@   :www",
"www@   :www8@   :www",
"www31117www8@   :www",
"wwwwwwwwwww8@   :www",
"wwwwwwwwwww8@   :www",
"wwwwwwwww2   X5wwwww",
"wwwwwwwww2   X5wwwww",
"wwwwwww:   @8wwwwwww",
"wwwwwww:   @8wwwwwww",
"wwwwq>-$ %130wwwwwww",
"wwww9&   =wwwwwwwwww",
"www3<# *14wwwwwwwwww",
"www@   :wwwwwwwwwwww",
"www@   ;888888889www",
"www@            :www",
"www@            :www",
"wwwwwwwwwwwwwwwwwwww",
"wwwwwwwwwwwwwwwwwwww",
"wwwwwwwwwwwwwwwwwwww",
"wwwwwwwwwwwwwwwwwwww"
};
