/* XPM */
static const char *tres[] = {
/* columns rows colors chars-per-pixel */
"20 35 17 1 ",
"  c #000000",
". c #383838",
"X c #434343",
"o c #464646",
"O c #474747",
"+ c #676767",
"@ c #9A9A9A",
"# c #A4A4A4",
"$ c #B0B0B0",
"% c #BFBFBF",
"& c #C4C4C4",
"* c #C7C7C7",
"= c #DBDBDB",
"- c #E0E0E0",
"; c #ECECEC",
": c #F6F6F6",
"> c #FFFFFF",
/* pixels */
">>>>>>>>>>>>>>>>>>>>",
">>>>>>>>>>>>>>>>>>>>",
">>>>>>>>>>>>>>>>>>>>",
">>>>>>>>>>>>>>>>>>>>",
">>>>>>>>>>>>>>>>>>>>",
">>>>>>>>>>>>>>>>>>>>",
">>>>>>>>>>>>>>>>>>>>",
">>>>>>>>>>>>>>>>>>>>",
">>>>>>>>>>>>>>>>>>>>",
">>>>>>>>>>>>>>>>>>>>",
">>>>>>>>>>>>>>>>>>>>",
">>>>>:+        &>>>>",
">>>>>:+        &>>>>",
">>>>O   @;;;=X .o$>>",
">>>>O   #>>>;O   #>>",
">>>>O   #>>>;O   #>>",
">>>>O   #>>>;O   #>>",
">>>>*%%%->>>;O   #>>",
">>>>>>>>>>>>;O   #>>",
">>>>>>>>:;;;=X .o$>>",
">>>>>>>>#      &>>>>",
">>>>>>>>#      &>>>>",
">>>>>>>>>>>>;O   #>>",
">>>>>>>>>>>>;O   #>>",
">>>>*%%%->>>;O   #>>",
">>>>O   #>>>;O   #>>",
">>>>O   #>>>;O   #>>",
">>>>O   #>>>;O   #>>",
">>>>O   @;;;=X   #>>",
">>>>>:+        &>>>>",
">>>>>:+        &>>>>",
">>>>>>>>>>>>>>>>>>>>",
">>>>>>>>>>>>>>>>>>>>",
">>>>>>>>>>>>>>>>>>>>",
">>>>>>>>>>>>>>>>>>>>"
};
