/* XPM */
static const char *quatro[] = {
/* columns rows colors chars-per-pixel */
"20 35 25 1 ",
"  c #000000",
". c #373737",
"X c #3B3B3B",
"o c #434343",
"O c #474747",
"+ c #5C5C5C",
"@ c #656565",
"# c #676767",
"$ c #7F7F7F",
"% c #828282",
"& c #838383",
"* c #888888",
"= c #979797",
"- c #A4A4A4",
"; c #A6A6A6",
": c #B2B2B2",
"> c #BFBFBF",
", c #C4C4C4",
"< c #D6D6D6",
"1 c #DBDBDB",
"2 c #ECECEC",
"3 c #EEEEEE",
"4 c #F6F6F6",
"5 c #F9F9F9",
"6 c #FFFFFF",
/* pixels */
"66666666666666666666",
"66666666666666666666",
"66666666666666666666",
"66666666666666666666",
"66666666666666666666",
"66666666666666666666",
"66666666666666666666",
"66666666666666666666",
"66666666666666666666",
"66666666666666666666",
"66666666666666666666",
"6666666666662O   -66",
"6666666666662O   -66",
"6666666666,      -66",
"6666666666,      -66",
"66666666-        -66",
"66666666-        -66",
"666665;*+ @>:.   -66",
"666664#   %62O   -66",
"6666=&X $><62O   -66",
"6666O   -6662O   -66",
"6666O   -6662O   -66",
"6666O   -6662O   -66",
"6666O   -6662O   -66",
"6666O            -66",
"6666O            -66",
"6666322222221o   -66",
"6666666666662O   -66",
"6666666666662O   -66",
"6666666666662O   -66",
"6666666666662O   -66",
"66666666666666666666",
"66666666666666666666",
"66666666666666666666",
"66666666666666666666"
};
