/* XPM */
static const char *cinco[] = {
/* columns rows colors chars-per-pixel */
"20 35 15 1 ",
"  c #000000",
". c #434343",
"X c #474747",
"o c #676767",
"O c #9A9A9A",
"+ c #A4A4A4",
"@ c #BFBFBF",
"# c #C4C4C4",
"$ c #C7C7C7",
"% c #DBDBDB",
"& c #E0E0E0",
"* c #ECECEC",
"= c #F6F6F6",
"- c #F9F9F9",
"; c #FFFFFF",
/* pixels */
";;;;;;;;;;;;;;;;;;;;",
";;;;;;;;;;;;;;;;;;;;",
";;;;;;;;;;;;;;;;;;;;",
";;;;;;;;;;;;;;;;;;;;",
";;;;;;;;;;;;;;;;;;;;",
";;;;;;;;;;;;;;;;;;;;",
";;;;;;;;;;;;;;;;;;;;",
";;;;;;;;;;;;;;;;;;;;",
";;;;;;;;;;;;;;;;;;;;",
";;;;;;;;;;;;;;;;;;;;",
";;;;;;;;;;;;;;;;;;;;",
";;;;;;;;;;;;;;;;;;;;",
";;;X            +;;;",
";;;X            +;;;",
";;;X   O********=;;;",
";;;X   +;;;;;;;;;;;;",
";;;X   +;;;;;;;;;;;;",
";;;X   +;;;;;;;;;;;;",
";;;X   +;;;;;;;;;;;;",
";;;X   +;;;;;;;;;;;;",
";;;X   O******-;;;;;",
";;;X          #;;;;;",
";;;X          #;;;;;",
";;;;;;;;;;;*X   +;;;",
";;;;;;;;;;;*X   +;;;",
";;;$@@@&;;;*X   +;;;",
";;;X   +;;;*X   +;;;",
";;;X   +;;;*X   +;;;",
";;;X   +;;;*X   +;;;",
";;;X   O***%.   +;;;",
";;;;=o        #;;;;;",
";;;;=o        #;;;;;",
";;;;;;;;;;;;;;;;;;;;",
";;;;;;;;;;;;;;;;;;;;",
";;;;;;;;;;;;;;;;;;;;"
};
