/* XPM */
static const char *seis[] = {
/* columns rows colors chars-per-pixel */
"20 35 28 1 ",
"  c #000000",
". c #0D0D0D",
"X c #1F1F1F",
"o c #313131",
"O c #383838",
"+ c #3D3D3D",
"@ c #434343",
"# c #444444",
"$ c #464646",
"% c #474747",
"& c #646464",
"* c #676767",
"= c #7A7A7A",
"- c #7C7C7C",
"; c #828282",
": c #9A9A9A",
"> c #A2A2A2",
", c #A4A4A4",
"< c #B0B0B0",
"1 c #C4C4C4",
"2 c #CACACA",
"3 c #D6D6D6",
"4 c #DBDBDB",
"5 c #ECECEC",
"6 c #F6F6F6",
"7 c #F7F7F7",
"8 c #F9F9F9",
"9 c #FFFFFF",
/* pixels */
"99999999999999999999",
"99999999999999999999",
"99999999999999999999",
"99999999999999999999",
"99999999999999999999",
"99999999999999999999",
"99999999999999999999",
"99999999999999999999",
"99999999999999999999",
"99999999999999999999",
"99999999999999999999",
"99999999999999999999",
"9999999,        ,999",
"9999999,        ,999",
"99997-$o =5555556999",
"99996*   ;9999999999",
"999% .+>239999999999",
"999%   ,999999999999",
"999%   ,999999999999",
"999%   ,999999999999",
"999%   :555555899999",
"999%          199999",
"999%          199999",
"999%   ,9995%   ,999",
"999%   ,9995%   ,999",
"999%   ,9995%   ,999",
"999%   ,9995%   ,999",
"999%   ,9995%   ,999",
"999%   ,9995%   ,999",
"999&#X :5554@ O$<999",
"99996*        199999",
"99996*        199999",
"99999999999999999999",
"99999999999999999999",
"99999999999999999999"
};
