/* XPM */
static const char *sete[] = {
/* columns rows colors chars-per-pixel */
"20 35 19 1 ",
"  c #000000",
". c #191919",
"X c #2F2F2F",
"o c #373737",
"O c #434343",
"+ c #474747",
"@ c #767676",
"# c #888888",
"$ c #A4A4A4",
"% c #B2B2B2",
"& c #BFBFBF",
"* c #C4C4C4",
"= c #C7C7C7",
"- c #D8D8D8",
"; c #DBDBDB",
": c #EBEBEB",
"> c #ECECEC",
", c #EEEEEE",
"< c #FFFFFF",
/* pixels */
"<<<<<<<<<<<<<<<<<<<<",
"<<<<<<<<<<<<<<<<<<<<",
"<<<<<<<<<<<<<<<<<<<<",
"<<<<<<<<<<<<<<<<<<<<",
"<<<<<<<<<<<<<<<<<<<<",
"<<<<<<<<<<<<<<<<<<<<",
"<<<<<<<<<<<<<<<<<<<<",
"<<<<<<<<<<<<<<<<<<<<",
"<<<<<<<<<<<<<<<<<<<<",
"<<<<<<<<<<<<<<<<<<<<",
"<<<<<<<<<<<<<<<<<<<<",
"<<<<<<<<<<<<<<<<<<<<",
"<<<+            $<<<",
"<<<+            $<<<",
"<<<,>>>>>>>;O   $<<<",
"<<<<<<<<<<<>+   $<<<",
"<<<<<<<<<<<>+   $<<<",
"<<<<<<<<<<<>+   $<<<",
"<<<<<<<<<:&%o.@#=<<<",
"<<<<<<<<<*   X-<<<<<",
"<<<<<<<<<*   X-<<<<<",
"<<<<<<<<<*   X-<<<<<",
"<<<<<<<<<*   X-<<<<<",
"<<<<<<<$   +><<<<<<<",
"<<<<<<<$   +><<<<<<<",
"<<<<<<<$   +><<<<<<<",
"<<<<<<<$   +><<<<<<<",
"<<<<<<<$   +><<<<<<<",
"<<<<<<<$   +><<<<<<<",
"<<<<<<<$   +><<<<<<<",
"<<<<<<<$   +><<<<<<<",
"<<<<<<<$   +><<<<<<<",
"<<<<<<<<<<<<<<<<<<<<",
"<<<<<<<<<<<<<<<<<<<<",
"<<<<<<<<<<<<<<<<<<<<"
};
