/* XPM */
static const char *oito[] = {
/* columns rows colors chars-per-pixel */
"20 35 19 1 ",
"  c #000000",
". c #0D0D0D",
"X c #1F1F1F",
"o c #2F2F2F",
"O c #3D3D3D",
"+ c #434343",
"@ c #444444",
"# c #464646",
"$ c #474747",
"% c #646464",
"& c #676767",
"* c #9A9A9A",
"= c #A4A4A4",
"- c #B0B0B0",
"; c #D8D8D8",
": c #DBDBDB",
"> c #ECECEC",
", c #F6F6F6",
"< c #FFFFFF",
/* pixels */
"<<<<<<<<<<<<<<<<<<<<",
"<<<<<<<<<<<<<<<<<<<<",
"<<<<<<<<<<<<<<<<<<<<",
"<<<<<<<<<<<<<<<<<<<<",
"<<<<<<<<<<<<<<<<<<<<",
"<<<<<<<<<<<<<<<<<<<<",
"<<<<<<<<<<<<<<<<<<<<",
"<<<<<<<<<<<<<<<<<<<<",
"<<<<<<<<<<<<<<<<<<<<",
"<<<<<<<<<<<<<<<<<<<<",
"<<<<<<<<<<<<<<<<<<<<",
"<<<<<<<<<<<<<<<<<<<<",
"<<<<,&       o;<<<<<",
"<<<<,&       o;<<<<<",
"<<<$   *>>>:+   =<<<",
"<<<$   =<<<>$   =<<<",
"<<<$   =<<<>$   =<<<",
"<<<$   =<<<>$   =<<<",
"<<<$   =<<<>$   =<<<",
"<<<$   =<<<>$   =<<<",
"<<<%@X *>>>:+.O#-<<<",
"<<<<,&       o;<<<<<",
"<<<<,&       o;<<<<<",
"<<<$   =<<<>$   =<<<",
"<<<$   =<<<>$   =<<<",
"<<<$   =<<<>$   =<<<",
"<<<$   =<<<>$   =<<<",
"<<<$   =<<<>$   =<<<",
"<<<$   =<<<>$   =<<<",
"<<<%@X *>>>:+.O#-<<<",
"<<<<,&       o;<<<<<",
"<<<<,&       o;<<<<<",
"<<<<<<<<<<<<<<<<<<<<",
"<<<<<<<<<<<<<<<<<<<<",
"<<<<<<<<<<<<<<<<<<<<"
};
