/* XPM */
static const char *nove[] = {
/* columns rows colors chars-per-pixel */
"20 35 35 1 ",
"  c #000000",
". c #0D0D0D",
"X c #121212",
"o c #191919",
"O c #1F1F1F",
"+ c #2F2F2F",
"@ c #373737",
"# c #3D3D3D",
"$ c #414141",
"% c #434343",
"& c #444444",
"* c #464646",
"= c #474747",
"- c #565656",
"; c #646464",
": c #676767",
"> c #767676",
", c #888888",
"< c #9A9A9A",
"1 c #A4A4A4",
"2 c #B0B0B0",
"3 c #B2B2B2",
"4 c #B7B7B7",
"5 c #BFBFBF",
"6 c #C4C4C4",
"7 c #C7C7C7",
"8 c #D8D8D8",
"9 c #DBDBDB",
"0 c #DDDDDD",
"q c #EBEBEB",
"w c #ECECEC",
"e c #F0F0F0",
"r c #F6F6F6",
"t c #FEFEFE",
"y c #FFFFFF",
/* pixels */
"yyyyyyyyyyyyyyyyyyyy",
"yyyyyyyyyyyyyyyyyyyy",
"yyyyyyyyyyyyyyyyyyyy",
"yyyyyyyyyyyyyyyyyyyy",
"yyyyyyyyyyyyyyyyyyyy",
"yyyyyyyyyyyyyyyyyyyy",
"yyyyyyyyyyyyyyyyyyyy",
"yyyyyyyyyyyyyyyyyyyy",
"yyyyyyyyyyyyyyyyyyyy",
"yyyyyyyyyyyyyyyyyyyy",
"yyyyyyyyyyyyyyyyyyyy",
"yyyyyyyyyyyyyyyyyyyy",
"yyyyr:       +8yyyyy",
"yyyyr:       +8yyyyy",
"yyy;&O <www9%.#*2yyy",
"yyy=   1yyyw=   1yyy",
"yyy=   1yyyw=   1yyy",
"yyy=   1yyyw=   1yyy",
"yyy=   1yyyw=   1yyy",
"yyy=   1yyyw=   1yyy",
"yyy;&O <www9%   1yyy",
"yyyyr:          1yyy",
"yyyyr:          1yyy",
"yyyyyyyyyyyw=   1yyy",
"yyyyyyyyyyyw=   1yyy",
"yyyyyyyyyyyw=   1yyy",
"yyyyyyyyyyyw=   1yyy",
"yyyyyyyyyq53@o>,7yyy",
"yyyyyyyyy6   +8yyyyy",
"yyyytewww4 X$-0yyyyy",
"yyyyr:     =wyyyyyyy",
"yyyyr:     =wyyyyyyy",
"yyyyyyyyyyyyyyyyyyyy",
"yyyyyyyyyyyyyyyyyyyy",
"yyyyyyyyyyyyyyyyyyyy"
};
