/* XPM */
static const char *a[] = {
/* columns rows colors chars-per-pixel */
"20 35 79 1 ",
"  c #000000",
". c #010101",
"X c #020202",
"o c #030303",
"O c #040404",
"+ c #050505",
"@ c #060606",
"# c #070707",
"$ c #080808",
"% c #090909",
"& c #0C0C0C",
"* c #0D0D0D",
"= c #1C1C1C",
"- c #303030",
"; c #3A3A3A",
": c #3C3C3C",
"> c #3D3D3D",
", c #3E3E3E",
"< c #424242",
"1 c #454545",
"2 c #464646",
"3 c #484848",
"4 c #494949",
"5 c #4A4A4A",
"6 c #4B4B4B",
"7 c #4C4C4C",
"8 c #4F4F4F",
"9 c #5E5E5E",
"0 c #5F5F5F",
"q c #696969",
"w c #6A6A6A",
"e c #6E6E6E",
"r c #777777",
"t c #929292",
"y c #939393",
"u c #9F9F9F",
"i c #A0A0A0",
"p c #A1A1A1",
"a c #A2A2A2",
"s c #A4A4A4",
"d c #A6A6A6",
"f c #A9A9A9",
"g c #AAAAAA",
"h c #ABABAB",
"j c #B3B3B3",
"k c #B8B8B8",
"l c #BCBCBC",
"z c #C3C3C3",
"x c #D0D0D0",
"c c #D2D2D2",
"v c #D3D3D3",
"b c #D5D5D5",
"n c #D7D7D7",
"m c #DEDEDE",
"M c #E5E5E5",
"N c #E6E6E6",
"B c #E7E7E7",
"V c #E8E8E8",
"C c #E9E9E9",
"Z c #EAEAEA",
"A c #EBEBEB",
"S c #EEEEEE",
"D c #EFEFEF",
"F c #F0F0F0",
"G c #F1F1F1",
"H c #F2F2F2",
"J c #F3F3F3",
"K c #F4F4F4",
"L c #F5F5F5",
"P c #F6F6F6",
"I c #F7F7F7",
"U c #F8F8F8",
"Y c #F9F9F9",
"T c #FAFAFA",
"R c #FBFBFB",
"E c #FCFCFC",
"W c #FDFDFD",
"Q c #FEFEFE",
"! c #FFFFFF",
/* pixels */
"!!!!!!!!!!!!!!!!!QQ!",
"!!!!!!!!!!!!!!!!!QQ!",
"!!!!!!!!!!!!!!!!!QQ!",
"!!!!!!!!!!!!!!!!!QQ!",
"!!!!!!!!!!!!!!!!!QQ!",
"!!!!!!!!!!!!!!!!!QQ!",
"!!!!!!!!!!!!!!!!!QQ!",
"!!!!!!!!!!!!!!!!!QQ!",
"!!!!!!!!!!!!!!!!!QQ!",
"!!!!!!!!!!!!!!!!!QQ!",
"!!!!!!!!!!!!!!!!!QQ!",
"!!!!!!!!!!!!!!!!!QQ!",
"!!!!!!!!!!!!!!!!!QQ!",
"!!!!!!!!!!!!!!!!!QQ!",
"!!!!!!!!!!!!!!!!!QQ!",
"!!!!!!!!!!!!!!!!!QQ!",
"!EYT!YWQWEY!I!!YQW!!",
"I!!!DwO  & .  zR!!ET",
"!T!!Gq     $O x!F!!Y",
"!!!NB0OaUACn2 -<lI!!",
"L!!5 o$tTI!U;X %uJ!!",
"W!E4  Xj!QUB<X# dR!E",
"!D!JQ!THY!!G5 $Xg!!U",
"!T!!!K!Q!!TF1o XiW!E",
"!J!!Lr # %  + X@sQ!!",
"!!L!L9  o  .  X sQ!!",
"UP!bk8=yVJKv3. osQ!!",
"!!E,   fEY!A3X. sQ!!",
"T!P2&XXp!E!Z: o#sQ!!",
"!!W7o  h!W!M8@o sQ!!",
"!!U> &*tmSEc6  XsQ!!",
"E!!!K0 X$  $. % sQ!!",
"R!!!Ze+         iY!R",
"R!YU!QJ!!!!!!!!!!!T!",
"E!!T!!QWWWWWWWWW!W!Y"
};
