/* XPM */
static const char *apostrofe[] = {
/* columns rows colors chars-per-pixel */
"20 35 40 1 ",
"  c #000000",
". c #030303",
"X c #090909",
"o c #0A0A0A",
"O c #262626",
"+ c #383838",
"@ c #3F3F3F",
"# c #494949",
"$ c #4B4B4B",
"% c #545454",
"& c #575757",
"* c #6F6F6F",
"= c #737373",
"- c #757575",
"; c #9E9E9E",
": c #9F9F9F",
"> c #A5A5A5",
", c #A7A7A7",
"< c #ADADAD",
"1 c #B0B0B0",
"2 c #BDBDBD",
"3 c #BEBEBE",
"4 c #D6D6D6",
"5 c #D7D7D7",
"6 c #D8D8D8",
"7 c #EEEEEE",
"8 c #F2F2F2",
"9 c #F3F3F3",
"0 c #F4F4F4",
"q c #F5F5F5",
"w c #F6F6F6",
"e c #F7F7F7",
"r c #F8F8F8",
"t c #F9F9F9",
"y c #FAFAFA",
"u c #FBFBFB",
"i c #FCFCFC",
"p c #FDFDFD",
"a c #FEFEFE",
"s c #FFFFFF",
/* pixels */
"sssssssssssssssssaas",
"sssssssssssssssssaas",
"sssssssssssssssssaas",
"sssssssssssssssssaas",
"sssssssssssssssssaas",
"sssssssssssssssssaas",
"sssssssssssssssssaas",
"sssssssssssssssssaas",
"pspssrpisssssssssaas",
"s9srssyssssssssssaas",
"systrs8isssssssssaas",
"esasspsssssssssssaas",
"ssswssqysssssssssaas",
"ptr%  X:sssssssssaas",
"sps$ o ,sssssssssaas",
"yst$ . >sssssssssaas",
"sir%  X;sssssssssaas",
"sys32* <sssssssssaas",
"ysaas- >sssssssssaas",
"ssy05=#1sssssssssaas",
"sqy&+4rssssssssssaas",
"ssq@O6s7sssssssssaas",
"qpsssysssssssssssaas",
"sysuisissssssssssaas",
"sssssssssssssssssaas",
"sssssssssssssssssaas",
"sssssssssssssssssaas",
"sssssssssssssssssaas",
"sssssssssssssssssaas",
"sssssssssssssssssaas",
"sssssssssssssssssaas",
"sssssssssssssssssaas",
"ssssssssssssssssstsy",
"aaaaaaaaaaaaaaaasiss",
"ssssssssssssssss8ss8"
};
