/* XPM */
static const char *b1[] = {
/* columns rows colors chars-per-pixel */
"20 35 83 1 ",
"  c #000000",
". c #010101",
"X c #020202",
"o c #030303",
"O c #040404",
"+ c #050505",
"@ c #060606",
"# c #070707",
"$ c #080808",
"% c #090909",
"& c #0A0A0A",
"* c #0B0B0B",
"= c #0C0C0C",
"- c #0E0E0E",
"; c #0F0F0F",
": c #111111",
"> c #303030",
", c #393939",
"< c #3A3A3A",
"1 c #3C3C3C",
"2 c #3D3D3D",
"3 c #3F3F3F",
"4 c #414141",
"5 c #424242",
"6 c #434343",
"7 c #444444",
"8 c #454545",
"9 c #464646",
"0 c #474747",
"q c #484848",
"w c #4A4A4A",
"e c #4B4B4B",
"r c #4C4C4C",
"t c #4F4F4F",
"y c #505050",
"u c #545454",
"i c #8B8B8B",
"p c #8F8F8F",
"a c #9D9D9D",
"s c #9F9F9F",
"d c #A0A0A0",
"f c #A1A1A1",
"g c #A2A2A2",
"h c #A3A3A3",
"j c #A5A5A5",
"k c #A6A6A6",
"l c #A7A7A7",
"z c #A8A8A8",
"x c #AAAAAA",
"c c #B1B1B1",
"v c #B2B2B2",
"b c #BCBCBC",
"n c #BDBDBD",
"m c #C3C3C3",
"M c #C6C6C6",
"N c #C8C8C8",
"B c #CCCCCC",
"V c #D0D0D0",
"C c #D7D7D7",
"Z c #E1E1E1",
"A c #E2E2E2",
"S c #E6E6E6",
"D c #E7E7E7",
"F c #E8E8E8",
"G c #E9E9E9",
"H c #EBEBEB",
"J c #EFEFEF",
"K c #F0F0F0",
"L c #F1F1F1",
"P c #F2F2F2",
"I c #F3F3F3",
"U c #F4F4F4",
"Y c #F5F5F5",
"T c #F6F6F6",
"R c #F7F7F7",
"E c #F8F8F8",
"W c #F9F9F9",
"Q c #FAFAFA",
"! c #FBFBFB",
"~ c #FCFCFC",
"^ c #FDFDFD",
"/ c #FEFEFE",
"( c #FFFFFF",
/* pixels */
"(((((((((((((((((//(",
"(((((((((((((((((//(",
"(((((((((((((((((//(",
"(((((((((((((((((//(",
"(((((((((((((((((//(",
"(((((((((((((((((//(",
"(((((((((((((((((//(",
"(((((((((((((((((//(",
"^(^((E^~(((((((((//(",
"(I(E((Q((((((((((//(",
"(Q(WE(P~(((((((((//(",
"R(/((^(((((((((((//(",
"(((T((YQ(((((((((//(",
"^WEu  %s(((((((((//(",
"(^(e & l(((((((((//(",
"Q(We o j(((((((((//(",
"(W(1;  g^~W(R((W/^((",
"^(!6X .  = .  m!((~Q",
"/(Rt  %@   $O V(K((W",
"/^(0+ +pEHGC9 >5bR((",
"/((,+% vQR(E<X &sI((",
"(~!q.  s(/ED5X# k!(~",
"(WRu  $kW((Lw $Xx((E",
"~((8 @ s((QK8o Xd^(~",
"Q((4   f((!P9X  h!^~",
"(UTqO+okWEWS9X+Og(((",
"(Q(r   l(((HeX  d/((",
"^W(7 + z(W(F4O ok(QR",
"!~~4&* g((/J2+ Xk((~",
"((~q+  cE(/Yq.  aE((",
"T(Wr  -iLPAB6 37nTW(",
"/(!y + #  O: @M(!(Y(",
"((Qq  XO.O . $N!(W(Q",
"(P(E((R((~(((Z(E(~((",
"(R^!((W((L((((((P((P"
};
