/* XPM */
static const char *c[] = {
/* columns rows colors chars-per-pixel */
"20 35 87 1 ",
"  c #000000",
". c #010101",
"X c #020202",
"o c #030303",
"O c #040404",
"+ c #050505",
"@ c #060606",
"# c #070707",
"$ c #080808",
"% c #090909",
"& c #0B0B0B",
"* c #0C0C0C",
"= c #0D0D0D",
"- c #131313",
"; c #252525",
": c #3B3B3B",
"> c #3E3E3E",
", c #3F3F3F",
"< c #404040",
"1 c #434343",
"2 c #444444",
"3 c #464646",
"4 c #474747",
"5 c #484848",
"6 c #494949",
"7 c #4A4A4A",
"8 c #4E4E4E",
"9 c #4F4F4F",
"0 c #505050",
"q c #636363",
"w c #686868",
"e c #696969",
"r c #6E6E6E",
"t c #707070",
"y c #919191",
"u c #999999",
"i c #9A9A9A",
"p c #9C9C9C",
"a c #9D9D9D",
"s c #9E9E9E",
"d c #A0A0A0",
"f c #A2A2A2",
"g c #A3A3A3",
"h c #A4A4A4",
"j c #A5A5A5",
"k c #A7A7A7",
"l c #A8A8A8",
"z c #AAAAAA",
"x c #ABABAB",
"c c #AEAEAE",
"v c #B4B4B4",
"b c #B8B8B8",
"n c #BCBCBC",
"m c #BFBFBF",
"M c #C3C3C3",
"N c #C4C4C4",
"B c #C6C6C6",
"V c #C7C7C7",
"C c #C8C8C8",
"Z c #C9C9C9",
"A c #CFCFCF",
"S c #D5D5D5",
"D c #D7D7D7",
"F c #DEDEDE",
"G c #E1E1E1",
"H c #E2E2E2",
"J c #E5E5E5",
"K c #E7E7E7",
"L c #E8E8E8",
"P c #E9E9E9",
"I c #EAEAEA",
"U c #EBEBEB",
"Y c #EEEEEE",
"T c #F1F1F1",
"R c #F2F2F2",
"E c #F3F3F3",
"W c #F4F4F4",
"Q c #F6F6F6",
"! c #F7F7F7",
"~ c #F8F8F8",
"^ c #F9F9F9",
"/ c #FAFAFA",
"( c #FBFBFB",
") c #FCFCFC",
"_ c #FDFDFD",
"` c #FEFEFE",
"' c #FFFFFF",
/* pixels */
"'''''''''''''''''``'",
"'''''''''''''''''``'",
"'''''''''''''''''``'",
"'''''''''''''''''``'",
"'''''''''''''''''``'",
"'''''''''''''''''``'",
"'''''''''''''''''``'",
"'''''''''''''''''``'",
"'''''''''''''''''``'",
"'''''''''''''''''``'",
"'''''''''''''''''``'",
"'''''''''''''''''``'",
"'''''''''''''''''``'",
"'''''''''''''''''``'",
"'''''''''''''''''``'",
"'''''''''''''''''``'",
"'~'`'_~''`''//'~``'Q",
"''_'Uq% X @  $M''_'!",
"^''/_t o@  $* VR`''_",
"'`^w,;ofGEKS1 yBF'''",
"(''7   k'''~3 $ cW')",
"_)W7X+-u/R'J3oO s)''",
"''`0  od')'L8Xo.j'''",
"'_'>.% x_`(U7  Xg_!'",
"('~5. @g'''!''~'`^''",
")/'9   z/~''''_'''!/",
"'')< &+p''')ZbmND'('",
"W'^4  $i'''H7=  l'''",
"'')9@  z~'`T:@ #h''~",
"!R'< & f(')Q7@  a^'~",
"''~2  +dYLPA6 &.vW'`",
"('`')e X+ &+ =n'!''~",
"('''Ir+ .O . $C('^'/",
"('^~'`E'')'''G'~')''",
")''/''`_'T''''''R''R"
};
