/* XPM */
static const char *d[] = {
/* columns rows colors chars-per-pixel */
"20 35 88 1 ",
"  c #000000",
". c #010101",
"X c #020202",
"o c #030303",
"O c #040404",
"+ c #050505",
"@ c #060606",
"# c #070707",
"$ c #090909",
"% c #0A0A0A",
"& c #0B0B0B",
"* c #0C0C0C",
"= c #0D0D0D",
"- c #0E0E0E",
"; c #0F0F0F",
": c #111111",
"> c #121212",
", c #131313",
"< c #141414",
"1 c #151515",
"2 c #161616",
"3 c #181818",
"4 c #191919",
"5 c #1B1B1B",
"6 c #1C1C1C",
"7 c #1D1D1D",
"8 c #1E1E1E",
"9 c #202020",
"0 c #272727",
"q c #2A2A2A",
"w c #2B2B2B",
"e c #313131",
"r c #353535",
"t c #515151",
"y c #5A5A5A",
"u c #606060",
"i c #626262",
"p c #636363",
"a c #666666",
"s c #676767",
"d c #686868",
"f c #696969",
"g c #6C6C6C",
"h c #6D6D6D",
"j c #6E6E6E",
"k c #727272",
"l c #757575",
"z c #7F7F7F",
"x c #B0B0B0",
"c c #BBBBBB",
"v c #D0D0D0",
"b c #D2D2D2",
"n c #D4D4D4",
"m c #D5D5D5",
"M c #D6D6D6",
"N c #D8D8D8",
"B c #D9D9D9",
"V c #DADADA",
"C c #DBDBDB",
"Z c #DCDCDC",
"A c #DEDEDE",
"S c #E1E1E1",
"D c #E2E2E2",
"F c #E3E3E3",
"G c #E4E4E4",
"H c #E6E6E6",
"J c #EAEAEA",
"K c #EBEBEB",
"L c #ECECEC",
"P c #EDEDED",
"I c #EEEEEE",
"U c #EFEFEF",
"Y c #F0F0F0",
"T c #F1F1F1",
"R c #F2F2F2",
"E c #F3F3F3",
"W c #F4F4F4",
"Q c #F5F5F5",
"! c #F6F6F6",
"~ c #F7F7F7",
"^ c #F8F8F8",
"/ c #F9F9F9",
"( c #FAFAFA",
") c #FBFBFB",
"_ c #FCFCFC",
"` c #FDFDFD",
"' c #FEFEFE",
"] c #FFFFFF",
/* pixels */
"]]]]]]]]]]]]]]]]]'']",
"]]]]]]]]]]]]]]]]]'']",
"]]]]]]]]]]]]]]]]]'']",
"]]]]]]]]]]]]]]]]]'']",
"]]]]]]]]]]]]]]]]]'']",
"]]]]]]]]]]]]]]]]]'']",
"]]]]]]]]]]]]]]]]]'']",
"]]]]]]]]]]]]]]]]]'']",
"]]]]]]]]]]/]']`']_)Q",
"]]]]]]]]`]]]``_]]]]]",
"]]]]]]]]^`]]```]R(/(",
"]]]]]]]]]]]]`]]_]]!]",
"]]]]]]]]]/^]E]]!K]_]",
"]]]]]]]]P]]v5  #zI)'",
"]]]]]]]]]])C1OX u)]]",
"]]]]]]]])`'Ho #Og]]/",
"^]](]]]]_])N4  .f']_",
"]'W]Gw  +#+o .. f']_",
"E']/L0 $    X..Xf']_",
"]_E09  tSSZc5   f']_",
"]/]$ & k_!(H$ $of']_",
")]]3 @ d]])M2 X f']_",
"^]_<.oos]]]m8 XXf']_",
"](`;o  h_~'S: @ f']_",
"^])<  ;p)'`F=.+Xf']_",
"]/]3$o i]](n2   f']_",
"]]]$ ..lQ]'b7 X&f']_",
"U]]>+ .a']]B-   f']_",
"]]),$X j]_!F-%%of']_",
")W], X s`]`D* . f']_",
"]`!r1 -yVABx6   f']_",
"(]]~Jq&   Oo  + f']_",
"]~]RKe          g(]_",
"W]]!]T]]]]]]]]]]Y]Q]",
")]')'``)````````]])("
};
