/* XPM */
static const char *d2[] = {
/* columns rows colors chars-per-pixel */
"20 35 3 1 ",
"  c #FEFEFE",
". c #FFFFFF",
"X c None",
/* pixels */
"XXXXXXXXXXXXXXXXXXXX",
"XXXXXXXXXXXXXXXXXXXX",
"XXXXXXXXXXXXXXXXXXXX",
"XXXXXXXXXXXXXXXXXXXX",
"XXXXXXXXXXXXXXXXXXXX",
"XXXXXXXXXXXXXXXXXXXX",
"XXXXXXXXXXXXXXXXXXXX",
"XXXXXXXXXXXXXXXXXXXX",
"XXXXXXXXXXXXXXXXXXXX",
"XXXXXXXXXXXXXXXXXXXX",
"XXXXXXXXXXXXXXXXXXXX",
"XXXXXXXXXXXXXXXXXXXX",
"XXXXXXXXXXXX ....XXX",
"XXXXXXXXXXXX ....XXX",
"XXXXXXXXXXXX ....XXX",
"XXXXXXXXXXXX ....XXX",
"XXXXX............XXX",
"XXXXX............XXX",
"XXX  ...XXXX ....XXX",
"XXX ....XXXX ....XXX",
"XXX ....XXXX ....XXX",
"XXX ....XXXX ....XXX",
"XXX ....XXXX ....XXX",
"XXX ....XXXX ....XXX",
"XXX ....XXXX ....XXX",
"XXX ....XXXX ....XXX",
"XXX ....XXXX ....XXX",
"XXX ....XXXX ....XXX",
"XXX ....XXXX ....XXX",
"XXX  ...XXXX ....XXX",
"XXXXX............XXX",
"XXXXX............XXX",
"XXXXXXXXXXXXXXXXXXXX",
"XXXXXXXXXXXXXXXXXXXX",
"XXXXXXXXXXXXXXXXXXXX"
};
