/* XPM */
static const char *doispontos[] = {
/* columns rows colors chars-per-pixel */
"20 35 7 1 ",
"  c #000000",
". c #474747",
"X c #A4A4A4",
"o c #BFBFBF",
"O c #C7C7C7",
"+ c #E0E0E0",
"@ c #FFFFFF",
/* pixels */
"@@@@@@@@@@@@@@@@@@@@",
"@@@@@@@@@@@@@@@@@@@@",
"@@@@@@@@@@@@@@@@@@@@",
"@@@@@@@@@@@@@@@@@@@@",
"@@@@@@@@@@@@@@@@@@@@",
"@@@@@@@@@@@@@@@@@@@@",
"@@@@@@@@@@@@@@@@@@@@",
"@@@@@@@@@@@@@@@@@@@@",
"@@@@@@@@@@@@@@@@@@@@",
"@@@@@@@@@@@@@@@@@@@@",
"@@@@@@@@@@@@@@@@@@@@",
"@@@@@@@@@@@@@@@@@@@@",
"@@@@@@@@@@@@@@@@@@@@",
"@@@@@@@@@@@@@@@@@@@@",
"@@@@@@@@@@@@@@@@@@@@",
"@@@@@@@@.   X@@@@@@@",
"@@@@@@@@.   X@@@@@@@",
"@@@@@@@@.   X@@@@@@@",
"@@@@@@@@.   X@@@@@@@",
"@@@@@@@@Oooo+@@@@@@@",
"@@@@@@@@@@@@@@@@@@@@",
"@@@@@@@@@@@@@@@@@@@@",
"@@@@@@@@@@@@@@@@@@@@",
"@@@@@@@@@@@@@@@@@@@@",
"@@@@@@@@@@@@@@@@@@@@",
"@@@@@@@@@@@@@@@@@@@@",
"@@@@@@@@Oooo+@@@@@@@",
"@@@@@@@@.   X@@@@@@@",
"@@@@@@@@.   X@@@@@@@",
"@@@@@@@@.   X@@@@@@@",
"@@@@@@@@.   X@@@@@@@",
"@@@@@@@@@@@@@@@@@@@@",
"@@@@@@@@@@@@@@@@@@@@",
"@@@@@@@@@@@@@@@@@@@@",
"@@@@@@@@@@@@@@@@@@@@"
};
