/* XPM */
static const char *e[] = {
/* columns rows colors chars-per-pixel */
"20 35 84 1 ",
"  c #000000",
". c #010101",
"X c #020202",
"o c #030303",
"O c #040404",
"+ c #050505",
"@ c #060606",
"# c #070707",
"$ c #080808",
"% c #090909",
"& c #0A0A0A",
"* c #0C0C0C",
"= c #0E0E0E",
"- c #131313",
"; c #252525",
": c #303030",
"> c #3A3A3A",
", c #3B3B3B",
"< c #3E3E3E",
"1 c #3F3F3F",
"2 c #404040",
"3 c #424242",
"4 c #434343",
"5 c #454545",
"6 c #464646",
"7 c #484848",
"8 c #4A4A4A",
"9 c #4F4F4F",
"0 c #505050",
"q c #616161",
"w c #636363",
"e c #686868",
"r c #6E6E6E",
"t c #707070",
"y c #939393",
"u c #999999",
"i c #9D9D9D",
"p c #9F9F9F",
"a c #A0A0A0",
"s c #A1A1A1",
"d c #A2A2A2",
"f c #A3A3A3",
"g c #A6A6A6",
"h c #A7A7A7",
"j c #AAAAAA",
"k c #ABABAB",
"l c #B0B0B0",
"z c #B1B1B1",
"x c #B2B2B2",
"c c #BCBCBC",
"v c #C0C0C0",
"b c #C3C3C3",
"n c #C8C8C8",
"m c #D0D0D0",
"M c #D4D4D4",
"N c #D7D7D7",
"B c #E1E1E1",
"V c #E5E5E5",
"C c #E6E6E6",
"Z c #E7E7E7",
"A c #E8E8E8",
"S c #E9E9E9",
"D c #EAEAEA",
"F c #EBEBEB",
"G c #ECECEC",
"H c #EDEDED",
"J c #EEEEEE",
"K c #EFEFEF",
"L c #F0F0F0",
"P c #F1F1F1",
"I c #F2F2F2",
"U c #F3F3F3",
"Y c #F4F4F4",
"T c #F5F5F5",
"R c #F6F6F6",
"E c #F7F7F7",
"W c #F8F8F8",
"Q c #F9F9F9",
"! c #FAFAFA",
"~ c #FBFBFB",
"^ c #FCFCFC",
"/ c #FDFDFD",
"( c #FEFEFE",
") c #FFFFFF",
/* pixels */
")))))))))))))))))(()",
")))))))))))))))))(()",
")))))))))))))))))(()",
")))))))))))))))))(()",
")))))))))))))))))(()",
")))))))))))))))))(()",
")))))))))))))))))(()",
")))))))))))))))))(()",
")))))))))))))))))(()",
")))))))))))))))))(()",
")))))))))))))))))(()",
")))))))))))))))))(()",
")))))))))))))))))(()",
")))))))))))))))))(()",
")))))))))))))))))(()",
")))))))))))))))))(()",
")W)()/W)/^Q)E))Q(/))",
"))/)Fw%  * .  b~))^!",
"Q))!/t o   $O m)L))Q",
")(Qe1;odWFSN6 :3cE))",
"~))8   h!E)W>X &pU))",
"/^Y8X+-u)(WZ3X# g~)^",
"))(0  oaQ))P8 $Xj))W",
")/)<.% k))!L5o Xa/)^",
"(!)5$  . $O &  %d()R",
"))/,+Xo  O  $@  zE)/",
")T)9  $iDJPHZJJ!C~))",
"(I!7.O f)T)R)))U))!)",
"^)(9   s)Q))CGYRZ)^/",
")I/2 & lW))A6O  fR)Q",
")))4 + ySKVM9 =$xQ)!",
"W)T^)q@.+ $o  v)E)!/",
"~)))Dr+ .O . $n~)Q)!",
"~)QW)(U))^)))B)W)^))",
"^))!))(/)P))))))I))I"
};
