/* XPM */
static const char *exclamacao[] = {
/* columns rows colors chars-per-pixel */
"20 35 82 1 ",
"  c #000000",
". c #010101",
"X c #020202",
"o c #030303",
"O c #040404",
"+ c #050505",
"@ c #060606",
"# c #070707",
"$ c #080808",
"% c #0C0C0C",
"& c #0D0D0D",
"* c #1A1A1A",
"= c #292929",
"- c #393939",
"; c #3A3A3A",
": c #3F3F3F",
"> c #424242",
", c #454545",
"< c #464646",
"1 c #484848",
"2 c #494949",
"3 c #4A4A4A",
"4 c #4B4B4B",
"5 c #4E4E4E",
"6 c #4F4F4F",
"7 c #606060",
"8 c #626262",
"9 c #646464",
"0 c #656565",
"q c #666666",
"w c #686868",
"e c #696969",
"r c #6A6A6A",
"t c #6B6B6B",
"y c #6C6C6C",
"u c #6E6E6E",
"i c #797979",
"p c #7A7A7A",
"a c #7E7E7E",
"s c #808080",
"d c #828282",
"f c #838383",
"g c #848484",
"h c #858585",
"j c #868686",
"k c #888888",
"l c #8B8B8B",
"z c #B5B5B5",
"x c #B8B8B8",
"c c #B9B9B9",
"v c #BFBFBF",
"b c #C0C0C0",
"n c #C5C5C5",
"m c #CBCBCB",
"M c #CECECE",
"N c #D9D9D",
"B c #DEDEDE",
"V c #DFDFDF",
"C c #E1E1E1",
"Z c #E4E4E4",
"A c #E8E8E8",
"S c #EAEAEA",
"D c #ECECEC",
"F c #EDEDED",
"G c #EEEEEE",
"H c #EFEFEF",
"J c #F0F0F0",
"K c #F1F1F1",
"L c #F2F2F2",
"P c #F3F3F3",
"I c #F4F4F4",
"U c #F5F5F5",
"Y c #F6F6F6",
"T c #F7F7F7",
"R c #F8F8F8",
"E c #F9F9F9",
"W c #FAFAFA",
"Q c #FBFBFB",
"! c #FCFCFC",
"~ c #FDFDFD",
"^ c #FEFEFE",
"/ c #FFFFFF",
/* pixels */
"/////////////////^^/",
"/////////////////^^/",
"/////////////////^^/",
"/////////////////^^/",
"/////////////////^^/",
"/////////////////^^/",
"/////////////////^^/",
"/////////////////^^/",
"R//I//Y~^T//E/Q//^^/",
"/Y///Y///TQQ~/E//^^/",
"Q^/~/JLZCE//QWW//^^/",
"//R/^7 O.sH~/Q~//^^/",
"H!/WK9X+olU//RQ//^^/",
"//I<o @   O1V//U/^^/",
"WP/6..X @. 3A~///^^/",
"///-o$ O   2G//!/^^/",
"~//> @+  O#,JT^//^^/",
"//!<.  @$  ;H//Q/^^/",
"E/!4&+    %5H//^/^^/",
"//Gt:* .%=,wC//W/^^/",
"^Q//Dq   dQ//R^//^^/",
"/RY/^r O@l/Q!//E/^^/",
"W/YWYyX  i//Q////^^/",
"!/T/Q0 X$a^/E^///^^/",
"!/W~Er . hEQ//~Q/^^/",
"////It+. f^//~^//^^/",
"/^WR!mzbcB/ERQ///^^/",
"TQ/~/////FWQ///Y/^^/",
"/^/QIMvxnN//~E///^^/",
"/T//Ge%  pW/~//E/^^/",
"/QR/K8 o k/WT////^^/",
"^/^QUy  .j!//^Q//^^/",
"Q///Su+  gW/WQ/^/E/W",
"Q/ER/^P/!^~Q///W/!//",
"!//W//^~/////YY/L//L"
};
