/* XPM */
static const char *exclamacao2[] = {
/* columns rows colors chars-per-pixel */
"20 35 3 1 ",
"  c #FEFEFE",
". c #FFFFFF",
"X c None",
/* pixels */
"XXXXXXXXXXXXXXXXXXXX",
"XXXXXXXXXXXXXXXXXXXX",
"XXXXXXXXXXXXXXXXXXXX",
"XXXXXXXXXXXXXXXXXXXX",
"XXXXXXXXXXXXXXXXXXXX",
"XXXXXXXXXXXXXXXXXXXX",
"XXXXXXXXXXXXXXXXXXXX",
"XXXXXXXXXXXXXXXXXXXX",
"XXXXXXXXXXXXXXXXXXXX",
"XXXXXXXXXXXXXXXXXXXX",
"XXXXX.....XXXXXXXXXX",
"XXXXX.....XXXXXXXXXX",
"XXX ....... XXXXXXXX",
"XXX ....... XXXXXXXX",
"XXX ....... XXXXXXXX",
"XXX ....... XXXXXXXX",
"XXX ....... XXXXXXXX",
"XXX ....... XXXXXXXX",
"XXX  .....  XXXXXXXX",
"XXXXX.....XXXXXXXXXX",
"XXXXX.....XXXXXXXXXX",
"XXXXX.....XXXXXXXXXX",
"XXXXX.....XXXXXXXXXX",
"XXXXX.....XXXXXXXXXX",
"XXXXX.....XXXXXXXXXX",
"XXXXX.   .XXXXXXXXXX",
"XXXXXXXXXXXXXXXXXXXX",
"XXXXX.   .XXXXXXXXXX",
"XXXXX.....XXXXXXXXXX",
"XXXXX.....XXXXXXXXXX",
"XXXXX.....XXXXXXXXXX",
"XXXXX.....XXXXXXXXXX",
"XXXXXXXXXXXXXXXXXXXX",
"XXXXXXXXXXXXXXXXXXXX",
"XXXXXXXXXXXXXXXXXXXX"
};
