/* XPM */
static const char *f[] = {
/* columns rows colors chars-per-pixel */
"20 35 66 1 ",
"  c #000000",
". c #010101",
"X c #020202",
"o c #030303",
"O c #040404",
"+ c #050505",
"@ c #060606",
"# c #070707",
"$ c #080808",
"% c #090909",
"& c #0A0A0A",
"* c #121212",
"= c #2F2F2F",
"- c #393939",
"; c #3A3A3A",
": c #3D3D3D",
"> c #414141",
", c #424242",
"< c #434343",
"1 c #484848",
"2 c #494949",
"3 c #4A4A4A",
"4 c #4C4C4C",
"5 c #505050",
"6 c #565656",
"7 c #949494",
"8 c #9C9C9C",
"9 c #A0A0A0",
"0 c #A1A1A1",
"q c #A2A2A2",
"w c #A3A3A3",
"e c #A5A5A5",
"r c #ABABAB",
"t c #ACACAC",
"y c #AEAEAE",
"u c #BCBCBC",
"i c #C9C9C9",
"p c #D5D5D5",
"a c #D8D8D8",
"s c #D9D9D9",
"d c #E3E3E3",
"f c #E4E4E4",
"g c #E6E6E6",
"h c #E7E7E7",
"j c #E9E9E9",
"k c #EBEBEB",
"l c #ECECEC",
"z c #EDEDED",
"x c #EEEEEE",
"c c #EFEFEF",
"v c #F0F0F0",
"b c #F1F1F1",
"n c #F2F2F2",
"m c #F3F3F3",
"M c #F4F4F4",
"N c #F5F5F5",
"B c #F6F6F6",
"V c #F7F7F7",
"C c #F8F8F8",
"Z c #F9F9F9",
"A c #FAFAFA",
"S c #FBFBFB",
"D c #FCFCFC",
"F c #FDFDFD",
"G c #FEFEFE",
"H c #FFFFFF",
/* pixels */
"HHHHHHHHHHHHHHHHHGGH",
"HHHHHHHHHHHHHHHHHGGH",
"HHHHHHHHHHHHHHHHHGGH",
"HHHHHHHHHHHHHHHHHGGH",
"HHHHHHHHHHHHHHHHHGGH",
"HHHHHHHHHHHHHHHHHGGH",
"HHHHHHHHHHHHHHHHHGGH",
"HHHHHHHHHHHHHHHHHGGH",
"HHDHHHHFHSGDHHGMHDHH",
"FHHFZDHHDHHHlZFHHHFA",
"CHHGSHHHHFHHHHHCSHFH",
"GGGHHHHFAAHCHcHHHHAH",
"HGDHHAAHHHDHHFHZnHCS",
"HGHHFZHHHi=X O &tZHH",
"AHHFHHHMHp-o+. oqVHH",
"HHHVHHku>:*;sznhnHvZ",
"NHZFHGG8  .4jHGGHHVV",
"HAHCFHFr%+o<xDSHvDAH",
"DGHDHvH9   ,nDCHHHSH",
"HHHgVfB7$oo2sNcgvHGG",
"SBB<O  o O  . oOwMHF",
"HHF5O  + #@#. ooyAHZ",
"MHGMHHH0.  3dHHnMHGF",
"HBHHnGHwX $>VVHHHSFH",
"HHHGHHDe   1jHFHHGGH",
"HHHGHHDe   1jHFHHGGH",
"HHHGHHDe   1jHFHHGGH",
"HHHGHHDe   1jHFHHGGH",
"HHHGHHDe   1jHFHHGGH",
"HHHGHHDe   1jHFHHGGH",
"HHHGHHDe   1jHFHHGGH",
"HHHGHHDe   1jHFHHGGH",
"HZHHCHBto o6aHZHHZHA",
"HZHHbHHvFHvBHHmHHDHH",
"HSHHDFHHHHHHHDFHnHHn"
};
