/* XPM */
static const char *g[] = {
/* columns rows colors chars-per-pixel */
"20 35 85 1 ",
"  c #000000",
". c #010101",
"X c #020202",
"o c #030303",
"O c #040404",
"+ c #050505",
"@ c #060606",
"# c #070707",
"$ c #080808",
"% c #090909",
"& c #0A0A0A",
"* c #0B0B0B",
"= c #0C0C0C",
"- c #0D0D0D",
"; c #0E0E0E",
": c #0F0F0F",
"> c #101010",
", c #111111",
"< c #232323",
"1 c #282828",
"2 c #424242",
"3 c #434343",
"4 c #444444",
"5 c #464646",
"6 c #474747",
"7 c #484848",
"8 c #494949",
"9 c #4A4A4A",
"0 c #505050",
"q c #545454",
"w c #5B5B5B",
"e c #5E5E5E",
"r c #606060",
"t c #646464",
"y c #676767",
"u c #6A6A6A",
"i c #6C6C6C",
"p c #6D6D6D",
"a c #929292",
"s c #999999",
"d c #9D9D9D",
"f c #9F9F9F",
"g c #A0A0A0",
"h c #A2A2A2",
"j c #A3A3A3",
"k c #A4A4A4",
"l c #A5A5A5",
"z c #A7A7A7",
"x c #A9A9A9",
"c c #AAAAAA",
"v c #ADADAD",
"b c #B2B2B2",
"n c #B6B6B6",
"m c #BBBBBB",
"M c #C5C5C5",
"N c #CCCCCC",
"B c #D7D7D7",
"V c #E1E1E1",
"C c #E3E3E3",
"Z c #E4E4E4",
"A c #E5E5E5",
"S c #E6E6E6",
"D c #E8E8E8",
"F c #E9E9E9",
"G c #EAEAEA",
"H c #EBEBEB",
"J c #ECECEC",
"K c #EDEDED",
"L c #EEEEEE",
"P c #F0F0F0",
"I c #F1F1F1",
"U c #F2F2F2",
"Y c #F3F3F3",
"T c #F4F4F4",
"R c #F5F5F5",
"E c #F6F6F6",
"W c #F7F7F7",
"Q c #F8F8F8",
"! c #F9F9F9",
"~ c #FAFAFA",
"^ c #FBFBFB",
"/ c #FCFCFC",
"( c #FDFDFD",
") c #FEFEFE",
"_ c #FFFFFF",
/* pixels */
"__!_QY_Q_)Q__~__)!(_",
"/E__)___(____^_)__~_",
"___W_QH_^_!____~K_/~",
"R_E_^p* @#   .o n)_/",
"!__!It o   :  +$s~_)",
"__Wi7<=aUTGN8&  j__/",
"Q(_2.  v^!_H6   c_)(",
"__R2> Xf_E_I5 O.g!)_",
"__(7  .j_(_F7   k)__",
"__(7  .j_(_F7   k)__",
"__(7  .j_(_F7   k)__",
"__(7  .j_(_F7   k)__",
"__(7  .j_(_F7   k)__",
"__(7  .j_(_F7   k)__",
"__(7  .j_(_F7   k)__",
"__(7  .j_(_F7   k)__",
"^R_y31 lKRVBq # x^^(",
"___)Zu=   %#   oz/__",
"Y_Y__e  =    ,@okW__",
"_(_W___!_)_L7 . x^^)",
"Y/_^)^___^~Q2 -Xz___",
"__L9;  lW__D2@ Os^__",
"_E_4 # h___C0 $.b/~_",
"!__SJw.dKCHA4 mFG_R)",
")!^_Wr .   oX.M~_))_",
"(___Ji*  +@  @m__))_",
"__~W_RU_)^~__P_(_))_",
"^_________((___(_))_",
"__^~E~(_T)_^Q_U__))_",
"W~^________R_____))_",
"__~_^_E_RE____Q!_))_",
"Q_^_)_!__~_~)(___))_",
"_________________!_~",
"))))))))))))))))_/__",
"________________U__U"
};
