/* XPM */
static const char *g2[] = {
/* columns rows colors chars-per-pixel */
"20 35 3 1 ",
"  c #FEFEFE",
". c #FFFFFF",
"X c None",
/* pixels */
"XXXXXXXXXXXXXXXXXXXX",
"XXXXX............XXX",
"XXXXX............XXX",
"XXX  ...XXXX ....XXX",
"XXX ....XXXX ....XXX",
"XXX ....XXXX ....XXX",
"XXX ....XXXX ....XXX",
"XXX ....XXXX ....XXX",
"XXX ....XXXX ....XXX",
"XXX ....XXXX ....XXX",
"XXX ....XXXX ....XXX",
"XXX ....XXXX ....XXX",
"XXX ....XXXX ....XXX",
"XXX ....XXXX ....XXX",
"XXX  ...XXXX ....XXX",
"XXXXX............XXX",
"XXXXX............XXX",
"XXXXXXXXXXXX ....XXX",
"XXXXXXXXXXXX ....XXX",
"XXX ....XXXX ....XXX",
"XXX ....XXXX ....XXX",
"XXXXX ..XXXX ..XXXXX",
"XXXXX..........XXXXX",
"XXXXX..........XXXXX",
"XXXXXXXXXXXXXXXXXXXX",
"XXXXXXXXXXXXXXXXXXXX",
"XXXXXXXXXXXXXXXXXXXX",
"XXXXXXXXXXXXXXXXXXXX",
"XXXXXXXXXXXXXXXXXXXX",
"XXXXXXXXXXXXXXXXXXXX",
"XXXXXXXXXXXXXXXXXXXX",
"XXXXXXXXXXXXXXXXXXXX",
"XXXXXXXXXXXXXXXXXXXX",
"XXXXXXXXXXXXXXXXXXXX",
"XXXXXXXXXXXXXXXXXXXX"
};
