/* XPM */
static const char *i[] = {
/* columns rows colors chars-per-pixel */
"20 35 72 1 ",
"  c #000000",
". c #010101",
"X c #020202",
"o c #030303",
"O c #040404",
"+ c #050505",
"@ c #060606",
"# c #070707",
"$ c #0A0A0A",
"% c #0B0B0B",
"& c #0D0D0D",
"* c #0E0E0E",
"= c #3F3F3F",
"- c #434343",
"; c #444444",
": c #454545",
"> c #484848",
", c #4A4A4A",
"< c #4B4B4B",
"1 c #4C4C4C",
"2 c #4D4D4D",
"3 c #4E4E4E",
"4 c #505050",
"5 c #515151",
"6 c #535353",
"7 c #9B9B9B",
"8 c #9D9D9D",
"9 c #9E9E9E",
"0 c #9F9F9F",
"q c #A0A0A0",
"w c #A4A4A4",
"e c #A5A5A5",
"r c #A7A7A7",
"t c #A8A8A8",
"y c #AAAAAA",
"u c #ABABAB",
"i c #ACACAC",
"p c #AEAEAE",
"a c #AFAFAF",
"s c #B4B4B4",
"d c #B7B7B7",
"f c #C2C2C2",
"g c #C3C3C3",
"h c #C9C9C9",
"j c #D7D7D7",
"k c #D9D9D9",
"l c #DDDDDD",
"z c #E3E3E3",
"x c #E5E5E5",
"c c #E6E6E6",
"v c #E7E7E7",
"b c #E8E8E8",
"n c #EAEAEA",
"m c #ECECEC",
"M c #EDEDED",
"N c #EEEEEE",
"B c #EFEFEF",
"V c #F0F0F0",
"C c #F2F2F2",
"Z c #F3F3F3",
"A c #F4F4F4",
"S c #F5F5F5",
"D c #F6F6F6",
"F c #F7F7F7",
"G c #F8F8F8",
"H c #F9F9F9",
"J c #FAFAFA",
"K c #FBFBFB",
"L c #FCFCFC",
"P c #FDFDFD",
"I c #FEFEFE",
"U c #FFFFFF",
/* pixels */
"UUUUUUUUUUUUUUUUUIIU",
"UUUUUUUUUUUUUUUUUIIU",
"UUUUUUUUUUUUUUUUUIIU",
"UUUUUUUUUUUUUUUUUIIU",
"UUUUUUUUUUUUUUUUUIIU",
"UUUUUUUUUUUUUUUUUIIU",
"UUUUUUUUUUUUUUUUUIIU",
"UUUUUUUUUUUUUUUUUIIU",
"PUUFUUHIUUFUFKUUUIIU",
"PUUHISUUUUFUUUULUIIU",
"UIKPUHUjafdgJHHUUIIU",
"UUFUUUUt#$O;vUIUUIIU",
"KUUPLUUw   -DUJIUIIU",
"IUUJLUH8  o4MJGUUIIU",
"UGUKUUSs# o3lUUIUIIU",
"UAULLUUGJUKDUIUUUIIU",
"UPKUUUUDIIKZUHUUUIIU",
"IIH,  .%. &5kJUIUIIU",
"UUU5 #     <nUUGUIIU",
"HDUxnmcr  .1MULUUIIU",
"UUDUUUU9@X ;MUAUUIIU",
"UULUSUHp   >VUHUUIIU",
"UZPUUUSu o@3nUJUUIIU",
"UUUHUKU0X  -xUULUIIU",
"UULUIGLy@  =mUUJUUUU",
"PHUUUUH0  #>NLUUULFK",
"USISSUUw   :ZUJUUIIU",
"UHUUHPU0$O ;NPZIIKUU",
"JIIUIZUi   <nULUIGLU",
"UUJUUIH7o  4bUIHUUKP",
"BKUzvHze  o2hVANvUUK",
"UUF6 X X.+  *   ySUH",
"UUJ>  XO        qHUK",
"UCUGUUFUUUUUUUUUUUJU",
"UFPKUUHUPPPPPPPPUPUH"
};
