/* XPM */
static const char *interrogacao[] = {
/* columns rows colors chars-per-pixel */
"20 35 87 1 ",
"  c #000000",
". c #010101",
"X c #020202",
"o c #030303",
"O c #040404",
"+ c #050505",
"@ c #070707",
"# c #080808",
"$ c #090909",
"% c #0A0A0A",
"& c #0B0B0B",
"* c #0C0C0C",
"= c #101010",
"- c #121212",
"; c #282828",
": c #2F2F2F",
"> c #393939",
", c #3A3A3A",
"< c #3D3D3D",
"1 c #3F3F3F",
"2 c #404040",
"3 c #414141",
"4 c #424224",
"5 c #444444",
"6 c #454545",
"7 c #464646",
"8 c #4A4A4A",
"9 c #4B4B4B",
"0 c #4C4C4C",
"q c #4D4D4D",
"w c #4F4F4F",
"e c #535353",
"r c #565656",
"t c #5D5D5D",
"y c #686868",
"u c #959595",
"i c #989898",
"p c #9B9B9B",
"a c #9C9C9C",
"s c #A1A1A1",
"d c #A2A2A2",
"f c #A4A4A4",
"g c #A5A5A5",
"h c #A7A7A7",
"j c #ACACAC",
"k c #AFAFAF",
"l c #B4B4B4",
"z c #B5B5B5",
"x c #B8B8B8",
"c c #BABABA",
"v c #BBBBBB",
"b c #BCBCBC",
"n c #C1C1C1",
"m c #C3C3C3",
"M c #C5C5C5",
"N c #C8C8C8",
"B c #C9C9C9",
"V c #CACACA",
"C c #D5D5D5",
"Z c #D8D8D8",
"A c #D9D9D9",
"S c #DCDCDC",
"D c #E3E3E3",
"F c #E6E6E6",
"G c #E7E7E7",
"H c #E8E8E8",
"J c #EAEAEA",
"K c #ECECEC",
"L c #EDEDED",
"P c #EEEEEE",
"I c #EFEFEF",
"U c #F0F0F0",
"Y c #F1F1F1",
"T c #F2F2F2",
"R c #F3F3F3",
"E c #F4F4F4",
"W c #F5F5F5",
"Q c #F6F6F6",
"! c #F7F7F7",
"~ c #F8F8F8",
"^ c #F9F9F9",
"/ c #FAFAFA",
"( c #FBFBFB",
") c #FCFCFC",
"_ c #FDFDFD",
"` c #FEFEFE",
"' c #FFFFFF",
/* pixels */
"'''''''''''''''''``'",
"'''''''''''''''''``'",
"'''''''''''''''''``'",
"'''''''''''''''''``'",
"'''''''''''''''''``'",
"'''''''''''''''''``'",
"'''''''''''''''''``'",
"'''''''''''''''''``'",
"'^`'`(Y'E`'')`(')'''",
"`'__'''!'_^K''')`'/^",
"R'''^W''~'''''_''''(",
"'_'^''('''I'~'//)'''",
"^/`W''_'^'_'')''`)~'",
"''^'Qt= % O X:B'''~_",
"(('((y.$o .+o>C'R'''",
"'''4&  uGTLA,-<3vL''",
"_''3# Xd_''F0. .g'')",
"'('7o +d/''Lq oOs_//",
"'~'e  *p''QH8 $ h'__",
"'E'mcnbK^''T9 X f'')",
"'''`'''T'`~D0@%@aQ'Q",
"!'^/QP''R''Kw   x/'^",
"''''''(!'z+  1A'J'''",
"'~'(('R'_B O ;Z_''('",
")'!`'''i  &7I''''``'",
"''_''!`lX  2D''Q'``'",
"'('''Q'KTHNM'`'''``'",
"'('_')''Y'')'W!''``'",
"'`'!`_/SVNzm/''''``'",
"('')''Ek  +eD''Y'``'",
"^'`''''d@  5F''''``'",
"''/'_~'dX O6L~(''``'",
"'^''~'Qjo orZ'^''^'/",
"'^''Y''U_'UQ''R'')''",
"'('')_''''''')_'T''T"
};
