/* XPM */
static const char *j[] = {
/* columns rows colors chars-per-pixel */
"20 35 64 1 ",
"  c #000000",
". c #010101",
"X c #020202",
"o c #030303",
"O c #040404",
"+ c #050505",
"@ c #070707",
"# c #080808",
"$ c #0A0A0A",
"% c #0C0C0C",
"& c #0D0D0D",
"* c #131313",
"= c #404040",
"- c #464646",
"; c #474747",
": c #484848",
"> c #494949",
", c #4A4A4A",
"< c #4D4D4D",
"1 c #505050",
"2 c #5B5B5B",
"3 c #666666",
"4 c #787878",
"5 c #979797",
"6 c #9B9B9B",
"7 c #9E9E9E",
"8 c #9F9F9F",
"9 c #A0A0A0",
"0 c #A1A1A1",
"q c #A4A4A4",
"w c #A5A5A5",
"e c #A9A9A9",
"r c #B6B6B6",
"t c #B7B7B7",
"y c #BABABA",
"u c #C8C8C8",
"i c #DDDDDD",
"p c #DEDEDE",
"a c #DFDFDF",
"s c #E3E3E3",
"d c #E5E5E5",
"f c #E7E7E7",
"g c #E8E8E8",
"h c #E9E9E9",
"j c #EAEAEA",
"k c #EBEBEB",
"l c #ECECEC",
"z c #EDEDED",
"x c #F0F0F0",
"c c #F1F1F1",
"v c #F2F2F2",
"b c #F3F3F3",
"n c #F4F4F4",
"m c #F5F5F5",
"M c #F6F6F6",
"N c #F7F7F7",
"B c #F8F8F8",
"V c #F9F9F9",
"C c #FAFAFA",
"Z c #FBFBFB",
"A c #FCFCFC",
"S c #FDFDFD",
"D c #FEFEFE",
"F c #FFFFFF",
/* pixels */
"FBFFFZCFAFVf1  o9MFD",
"DAFFFFFFVDAk> O tDSS",
"DFFCDFDSFDFl<O% 5AFV",
"FFSCFADFBFFi- .OeSFA",
"SFCFFDFFFFCFFFFDFFNF",
"FFVFFZFlBFDDFCMFmFCF",
"FFZFCVCyOX  o.  eSFB",
"ZFSFBFD7X OX  o 0FZn",
"FFFFFFFFzkbp=   qDFF",
"FFFFFFFFAVFf; . qDFF",
"FFFFFFFFFDFj:   qDFF",
"FFFFFFFFFZFg;   qDFF",
"FFFFFFFFFAFh>.X.qDFF",
"FFFFFFFFFSFh:   qDFF",
"FFFFFFFFFAFg;   qDFF",
"FFFFFFFFFSFj>XXXqDFF",
"FFFFFFFFFSFh:   qDFF",
"FFFFFFFFFSFh:   qDFF",
"FFFFFFFFFSFh:   qDFF",
"FFFFFFFFFSFh:   qDFF",
"FFFFFFFFFSFh:   qDFF",
"FFFFFFFFFSFh:   qDFF",
"FFFFFFFFFSFh:   qDFF",
"FFFFFFFFFSFh:   qDFF",
"FZF,   wFDFz= . 9DFD",
"ZFD<O o6FFlb> &@rACC",
"FSAad2 8dFgp-#9lsFAF",
"SFFSx4  X  .. uFFFDF",
"AFBVc3 +X $ #*ymSSVF",
"FnFFFmFFDSFFmvFFDASF",
"BFFBFFFmFFNFCFFAFFFF",
"FAFDFMFFAFAFFBFVAFAC",
"FFFFFFFFFFFFFFFFFVFC",
"DDDDDDDDDDDDDDDDFAFF",
"FFFFFFFFFFFFFFFFvFFv"
};
