/* XPM */
static const char *k[] = {
/* columns rows colors chars-per-pixel */
"20 35 86 1 ",
"  c #000000",
". c #010101",
"X c #020202",
"o c #030303",
"O c #040404",
"+ c #060606",
"@ c #070707",
"# c #080808",
"$ c #090909",
"% c #0A0A0A",
"& c #0C0C0C",
"* c #131313",
"= c #282828",
"- c #2B2B2B",
"; c #2C2C2C",
": c #2F2F2F",
"> c #303030",
", c #313131",
"< c #3C3C3C",
"1 c #3E3E3E",
"2 c #404040",
"3 c #424242",
"4 c #434343",
"5 c #444444",
"6 c #464646",
"7 c #474747",
"8 c #484848",
"9 c #494949",
"0 c #4B4B4B",
"q c #4C4C4C",
"w c #4E4E4E",
"e c #525252",
"r c #535353",
"t c #545454",
"y c #565656",
"u c #636363",
"i c #7F7F7F",
"p c #828282",
"a c #868686",
"s c #8A8A8A",
"d c #979797",
"f c #9D9D9D",
"g c #9F9F9F",
"h c #A0A0A0",
"j c #A2A2A2",
"k c #A3A3A3",
"l c #A4A4A4",
"z c #A5A5A5",
"x c #A6A6A6",
"c c #A7A7A7",
"v c #A8A8A8",
"b c #ABABAB",
"n c #AFAFAF",
"m c #B2B2B2",
"M c #B4B4B4",
"N c #BDBDBD",
"B c #C4C4C4",
"V c #C5C5C5",
"C c #CBCBCB",
"Z c #D3D3D3",
"A c #D5D5D5",
"S c #D7D7D7",
"D c #D8D8D8",
"F c #DBDBDB",
"G c #DEDEDE",
"H c #E1E1E1",
"J c #E4E4E4",
"K c #E9E9E9",
"L c #EBEBEB",
"P c #ECECEC",
"I c #EFEFEF",
"U c #F0F0F0",
"Y c #F2F2F2",
"T c #F3F3F3",
"R c #F4F4F4",
"E c #F5F5F5",
"W c #F6F6F6",
"Q c #F7F7F7",
"! c #F8F8F8",
"~ c #F9F9F9",
"^ c #FAFAFA",
"/ c #FBFBFB",
"( c #FCFCFC",
") c #FDFDFD",
"_ c #FEFEFE",
"` c #FFFFFF",
/* pixels */
"`````````````````__`",
"`````````````````__`",
"`````````````````__`",
"`````````````````__`",
"`````````````````__`",
"`````````````````__`",
"`````````````````__`",
"`````````````````__`",
")`)``!)(`````````__`",
"`T`!``^``````````__`",
"`^`~!`Y(`````````__`",
"Q`_``)```````````__`",
"```W``E^`````````__`",
")~!t  $g`````````__`",
"`)`0 % c`````````__`",
"^`~0 o z`````````__`",
"``)8  .k`!W`W(`/Q``!",
"``)8  .k/``JwO  MR`_",
"``)8  .k_^`P1  @f~`!",
"``)8  .k`Q/!8#o l``!",
"``)8  .k``EE2 OXv```",
"``)8  .k`Has:>fNS`/`",
"``)8  .k`N   -A```Q^",
"``)8  .k^Co &:F`_~``",
"``_3  O   o2I`E``_`_",
"_~_q&  & & rPR`^`)_`",
"`/`5  *sKn @4uH/``(`",
"_/`7  +b`V$o =Z`/`__",
"`/`3#o dEGip;,fBF```",
"``/< ##n``^I9  XmW``",
"Q``0   j)(`U6  XgQ``",
"``QqO +x`~`L8O Xk``/",
"``Qe   h`~`Dyo oh~`/",
"E``Q``/``T``WU`)``^`",
"``!``R`U`)(``````)`~"
};
