/* XPM */
static const char *k2[] = {
/* columns rows colors chars-per-pixel */
"20 35 3 1 ",
"  c #FEFEFE",
". c #FFFFFF",
"X c None",
/* pixels */
"XXXXXXXXXXXXXXXXXXXX",
"XXXXXXXXXXXXXXXXXXXX",
"XXXXXXXXXXXXXXXXXXXX",
"XXXXXXXXXXXXXXXXXXXX",
"XXXXXXXXXXXXXXXXXXXX",
"XXXXXXXXXXXXXXXXXXXX",
"XXXXXXXXXXXXXXXXXXXX",
"XXXXXXXXXXXXXXXXXXXX",
"XXXXXXXXXXXXXXXXXXXX",
"XXXXXXXXXXXXXXXXXXXX",
"XXXXXXXXXXXXXXXXXXXX",
"XXXXXXXXXXXXXXXXXXXX",
"XXX ....XXXXXXXXXXXX",
"XXX ....XXXXXXXXXXXX",
"XXX ....XXXXXXXXXXXX",
"XXX ....XXXXXXXXXXXX",
"XXX ....XXXX ....XXX",
"XXX ....XXXX ....XXX",
"XXX ....XXXX ....XXX",
"XXX ....XXXX ....XXX",
"XXX ....XX. ... XXXX",
"XXX ....X......XXXXX",
"XXX ....X......XXXXX",
"XXX ....... XXXXXXXX",
"XXX ....... XXXXXXXX",
"XXX ....X...  XXXXXX",
"XXX ....X......XXXXX",
"XXX ....XX. ... XXXX",
"XXX ....XXXX ....XXX",
"XXX ....XXXX ....XXX",
"XXX ....XXXX ....XXX",
"XXX ....XXXX ....XXX",
"XXXXXXXXXXXXXXXXXXXX",
"XXXXXXXXXXXXXXXXXXXX",
"XXXXXXXXXXXXXXXXXXXX"
};
