/* XPM */
static const char *l[] = {
/* columns rows colors chars-per-pixel */
"20 35 57 1 ",
"  c #000000",
". c #010101",
"X c #020202",
"o c #030303",
"O c #040404",
"+ c #050505",
"@ c #060606",
"# c #070707",
"$ c #080808",
"% c #0D0D0D",
"& c #0E0E0E",
"* c #3F3F3F",
"= c #444444",
"- c #454545",
"; c #484848",
": c #4B4B4B",
"> c #4C4C4C",
", c #4D4D4D",
"< c #4E4E4E",
"1 c #4F4F4F",
"2 c #505050",
"3 c #535353",
"4 c #9B9B9B",
"5 c #9F9F9F",
"6 c #A0A0A0",
"7 c #A4A4A4",
"8 c #A5A5A5",
"9 c #AAAAAA",
"0 c #ACACAC",
"q c #C9C9C9",
"w c #DCDCDC",
"e c #E1E1E1",
"r c #E3E3E3",
"t c #E7E7E7",
"y c #E8E8E8",
"u c #E9E9E9",
"i c #EAEAEA",
"p c #EBEBEB",
"a c #ECECEC",
"s c #EDEDED",
"d c #EEEEEE",
"f c #EFEFEF",
"g c #F0F0F0",
"h c #F2F2F2",
"j c #F3F3F3",
"k c #F4F4F4",
"l c #F5F5F5",
"z c #F6F6F6",
"x c #F7F7F7",
"c c #F8F8F8",
"v c #F9F9F9",
"b c #FAFAFA",
"n c #FBFBFB",
"m c #FCFCFC",
"M c #FDFDFD",
"N c #FEFEFE",
"B c #FFFFFF",
/* pixels */
"BBBBBBBBBBBBBBBBBNNB",
"BBBBBBBBBBBBBBBBBNNB",
"BBBBBBBBBBBBBBBBBNNB",
"BBBBBBBBBBBBBBBBBNNB",
"BBBBBBBBBBBBBBBBBNNB",
"BBBBBBBBBBBBBBBBBNNB",
"BBBBBBBBBBBBBBBBBNNB",
"BBBBBBBBBBBBBBBBBNNB",
"BBxBBBBBNBbBBvBBBNNB",
"BBBBMBmMBBjMBBBzBNNB",
"mBBbczBBbBBBBkBBBNNB",
"BBhBBmBnBNkjBBBbBNNB",
"BBBlNBBlmBMxBbBBBNNB",
"Mxn1 @ %O.#>wBBbBNNB",
"BBM<   .  o:pBmBBNNB",
"lBBezsr5OO =jBlBBNNB",
"BBBNBBm8   ;uBMBBNNB",
"BBBNBBm8   ;uBMBBNNB",
"BBBNBBm8   ;uBMBBNNB",
"BBBNBBm8   ;uBMBBNNB",
"BBBNBBm8   ;uBMBBNNB",
"BBBNBBm8   ;uBMBBNNB",
"BBBNBBm8   ;uBMBBNNB",
"BBBNBBm8   ;uBMBBNNB",
"BBmBNcm9@  *aBBbBBBB",
"MvBBBBv5  #;dmBBBmxn",
"BlNllBB7   -jBbBBNNB",
"BvBBvMB5$O =dMjNNnBB",
"bNNBNjB0   :iBmBNcmB",
"BBbBBNv4o  2yBNvBBnM",
"fnBrtvr8  o,qgkdtBBn",
"BBx3 X X.+  &   9lBv",
"BBb;  XO        6vBn",
"BhBcBBxBBBBBBBBBBBbB",
"BxMnBBvBMMMMMMMMBMBv"
};
