/* XPM */
static const char *m[] = {
/* columns rows colors chars-per-pixel */
"20 35 97 2 ",
"   c #000000",
".  c #010101",
"X  c #030303",
"o  c #040404",
"O  c #050505",
"+  c #060606",
"@  c #070707",
"#  c #080808",
"$  c #090909",
"%  c #0B0B0B",
"&  c #0F0F0F",
"*  c #191919",
"=  c #222222",
"-  c #262626",
";  c #2B2B2B",
":  c #2C2C2C",
">  c #2F2F2F",
",  c #303030",
"<  c #333333",
"1  c #353535",
"2  c #373737",
"3  c #393939",
"4  c #3C3C3C",
"5  c #3E3E3E",
"6  c #3F3F3F",
"7  c #404040",
"8  c #414141",
"9  c #424242",
"0  c #444444",
"q  c #454545",
"w  c #484848",
"e  c #494949",
"r  c #4B4B4B",
"t  c #4C4C4C",
"y  c #4E4E4E",
"u  c #4F4F4F",
"i  c #525252",
"p  c #545454",
"a  c #555555",
"s  c #5B5B5B",
"d  c #616161",
"f  c #626262",
"g  c #636363",
"h  c #656565",
"j  c #696969",
"k  c #6A6A6A",
"l  c #6B6B6B",
"z  c #6F6F6F",
"x  c #717171",
"c  c #7C7C7C",
"v  c #7D7D7D",
"b  c #808080",
"n  c #818181",
"m  c #838383",
"M  c #858585",
"N  c #878787",
"B  c #929292",
"V  c #939393",
"C  c #969696",
"Z  c #9C9C9C",
"A  c #9E9E9E",
"S  c #A0A0A0",
"D  c #A2A2A2",
"F  c #A3A3A3",
"G  c #A6A6A6",
"H  c #ADADAD",
"J  c #BEBEBE",
"K  c #C3C3C3",
"L  c #CBCBCB",
"P  c #D5D5D5",
"I  c #D7D7D7",
"U  c #D8D8D8",
"Y  c #DEDEDE",
"T  c #E1E1E1",
"R  c #E4E4E4",
"E  c #E7E7E7",
"W  c #E8E8E8",
"Q  c #E9E9E9",
"!  c #ECECEC",
"~  c #EDEDED",
"^  c #EEEEEE",
"/  c #EFEFEF",
"(  c #F0F0F0",
")  c #F1F1F1",
"_  c #F3F3F3",
"`  c #F4F4F4",
"'  c #F5F5F5",
"]  c #F6F6F6",
"[  c #F7F7F7",
"{  c #F8F8F8",
"}  c #F9F9F9",
"|  c #FAFAFA",
" . c #FBFBFB",
".. c #FCFCFC",
"X. c #FDFDFD",
"o. c #FEFEFE",
"O. c #FFFFFF",
/* pixels */
"O.O.O.O.O.O.O.O.O.O.O.O.O.O.O.O.O.o.o.O.",
"O.O.O.O.O.O.O.O.O.O.O.O.O.O.O.O.O.o.o.O.",
"O.O.O.O.O.O.O.O.O.O.O.O.O.O.O.O.O.o.o.O.",
"O.O.O.O.O.O.O.O.O.O.O.O.O.O.O.O.O.o.o.O.",
"O.O.O.O.O.O.O.O.O.O.O.O.O.O.O.O.O.o.o.O.",
"O.O.O.O.O.O.O.O.O.O.O.O.O.O.O.O.O.o.o.O.",
"O.O.O.O.O.O.O.O.O.O.O.O.O.O.O.O.O.o.o.O.",
"O.O.O.O.O.O.O.O.O.O.O.O.O.O.O.O.O.o.o.O.",
"O.O.O.O.O.O.O.O.O.O.O.O.O.O.O.O.O.o.o.O.",
"O.O.O.O.O.O.O.O.O.O.O.O.O.O.O.O.O.o.o.O.",
"O.O.O.O.O.O.O.O.O.O.O.O.O.O.O.O.O.o.o.O.",
"O.O.O.O.O.O.O.O.O.O.O.O.O.O.O.O.O.o.o.O.",
"O.O.O.O.O.O.O.O.O.O.O.O.O.O.O.O.O.o.o.O.",
"O.O.O.O.O.O.O.O.O.O.O.O.O.O.O.O.O.o.o.O.",
"O.O.O.O.O.O.O.O.O.O.O.O.O.O.O.O.O.o.o.O.",
"O.O.O.O.O.O.O.O.O.O.O.O.O.O.O.O.O.o.o.O.",
"..| O. .O. .X.O.o.O.o.O.o.O.' O.O.| O.O.",
"O.O.[ y   o       f ) ~ 7   $   Z [ O. .",
"^ { O.e   +   O . z [ ) e   X   H O.O...",
"O.O.} q O   o     * 2 9 &       ; r V ^ ",
"' O.| 9 # .   . . @   %   . +       M O.",
"O.] O.4   . o v J A = < H K p   #   N  .",
"O.( O.a %     G ..W 3 5 ~ ] s +     n } ",
"} O.' 8     $ D O.L : y ! ` j O     b O.",
"O.O.X.w     . F X.U 1 9 ~ o.d   .   m X.",
"O.O.X.w     . F O.P > 0 E { j . .   m X.",
"O.O.X.w     . F O.I > t W / k   .   m X.",
"O.O.X.w     . F  .Y , u ` ( g   .   m X.",
"O.O.X.w     . F ..Y - 6 ] } d o .   m X.",
"O.O.X.w     . F ..I 2 q Q } f X .   m X.",
"O.O.X.w     . F ..R B C ~ _ h   .   m X.",
"O.O.X.w     . F O.O... .O.) l   .   m X.",
"O.O.[ i       S  .O.o.O.O.T x     X c ..",
"' O.O.[ O.O. .O.O.O.O. .O.O.O.] O.O.[ O.",
"O.O.{ O.O.` O.( o.O.O.O.} ` { O.( X.O.] "
};
