/* XPM */
static const char *n[] = {
/* columns rows colors chars-per-pixel */
"20 35 58 1 ",
"  c #000000",
". c #010101",
"X c #020202",
"o c #030303",
"O c #040404",
"+ c #050505",
"@ c #070707",
"# c #080808",
"$ c #0A0A0A",
"% c #0C0C0C",
"& c #0D0D0D",
"* c #101010",
"= c #303030",
"- c #3A3A3A",
"; c #424242",
": c #444444",
"> c #454545",
", c #464646",
"< c #484848",
"1 c #494949",
"2 c #4A4A4A",
"3 c #4B4B4B",
"4 c #4C4C4C",
"5 c #4E4E4E",
"6 c #525252",
"7 c #565656",
"8 c #9B9B9B",
"9 c #9F9F9F",
"0 c #A0A0A0",
"q c #A2A2A2",
"w c #A3A3A3",
"e c #A4A4A4",
"r c #A6A6A6",
"t c #AAAAAA",
"y c #AEAEAE",
"u c #BCBCBC",
"i c #C3C3C3",
"p c #D0D0D0",
"a c #D7D7D7",
"s c #D8D8D8",
"d c #E7E7E7",
"f c #E9E9E9",
"g c #EBEBEB",
"h c #F0F0F0",
"j c #F1F1F1",
"k c #F3F3F3",
"l c #F4F4F4",
"z c #F5F5F5",
"x c #F6F6F6",
"c c #F7F7F7",
"v c #F8F8F8",
"b c #F9F9F9",
"n c #FAFAFA",
"m c #FBFBFB",
"M c #FCFCFC",
"N c #FDFDFD",
"B c #FEFEFE",
"V c #FFFFFF",
/* pixels */
"VVVVVVVVVVVVVVVVVBBV",
"VVVVVVVVVVVVVVVVVBBV",
"VVVVVVVVVVVVVVVVVBBV",
"VVVVVVVVVVVVVVVVVBBV",
"VVVVVVVVVVVVVVVVVBBV",
"VVVVVVVVVVVVVVVVVBBV",
"VVVVVVVVVVVVVVVVVBBV",
"VVVVVVVVVVVVVVVVVBBV",
"VVVVVVVVVVVVVVVVVBBV",
"VVVVVVVVVVVVVVVVVBBV",
"VVVVVVVVVVVVVVVVVBBV",
"VVVVVVVVVVVVVVVVVBBV",
"VVVVVVVVVVVVVVVVVBBV",
"VVVVVVVVVVVVVVVVVBBV",
"VVVVVVVVVVVVVVVVVBBV",
"VVVVVVVVVVVVVVVVVBBV",
"VzVVMVmVNMbVcVVbBNVV",
"vVb1 Xo  % .  imVVMn",
"BVB;&*     #O pVhVVb",
"MnV3  @wvgfa, =;ucVV",
"VVc4 o 8ncVv-X $9kVV",
"nVm2 $OyVBvd;X@ rmVM",
"mBV5   0bVVj2 #XtVVv",
"VVV:+ %qVVnh>o X0NVM",
"VVN<  .wVNVf<   eBVV",
"VVN<  .wVNVf<   eBVV",
"VVN<  .wVNVf<   eBVV",
"VVN<  .wVNVf<   eBVV",
"VVN<  .wVNVf<   eBVV",
"VVN<  .wVNVf<   eBVV",
"VVN<  .wVNVf<   eBVV",
"VVN<  .wVNVf<   eBVV",
"VVc6   0VbVs7o o0bVm",
"zVVcVVmVVkVVxhVNVVnV",
"VVvVVlVhVNMVVVVVVNVb"
};
