/* XPM */
static const char *n2[] = {
/* columns rows colors chars-per-pixel */
"20 35 3 1 ",
"  c #FEFEFE",
". c #FFFFFF",
"X c None",
/* pixels */
"XXXXXXXXXXXXXXXXXXXX",
"XXXXXXXXXXXXXXXXXXXX",
"XXXXXXXXXXXXXXXXXXXX",
"XXXXXXXXXXXXXXXXXXXX",
"XXXXXXXXXXXXXXXXXXXX",
"XXXXXXXXXXXXXXXXXXXX",
"XXXXXXXXXXXXXXXXXXXX",
"XXXXXXXXXXXXXXXXXXXX",
"XXXXXXXXXXXXXXXXXXXX",
"XXXXXXXXXXXXXXXXXXXX",
"XXXXXXXXXXXXXXXXXXXX",
"XXXXXXXXXXXXXXXXXXXX",
"XXXXXXXXXXXXXXXXXXXX",
"XXXXXXXXXXXXXXXXXXXX",
"XXXXXXXXXXXXXXXXXXXX",
"XXXXXXXXXXXXXXXXXXXX",
"XXX ...........XXXXX",
"XXX ...........XXXXX",
"XXX ....XXXX ..  XXX",
"XXX ....XXXX ....XXX",
"XXX ....XXXX ....XXX",
"XXX ....XXXX ....XXX",
"XXX ....XXXX ....XXX",
"XXX ....XXXX ....XXX",
"XXX ....XXXX ....XXX",
"XXX ....XXXX ....XXX",
"XXX ....XXXX ....XXX",
"XXX ....XXXX ....XXX",
"XXX ....XXXX ....XXX",
"XXX ....XXXX ....XXX",
"XXX ....XXXX ....XXX",
"XXX ....XXXX ....XXX",
"XXXXXXXXXXXXXXXXXXXX",
"XXXXXXXXXXXXXXXXXXXX",
"XXXXXXXXXXXXXXXXXXXX"
};
