/* XPM */
static const char *o[] = {
/* columns rows colors chars-per-pixel */
"20 35 86 1 ",
"  c #000000",
". c #010101",
"X c #020202",
"o c #030303",
"O c #040404",
"+ c #050505",
"@ c #060606",
"# c #070707",
"$ c #080808",
"% c #090909",
"& c #0A0A0A",
"* c #0C0C0C",
"= c #111111",
"- c #131313",
"; c #1D1D1D",
": c #252525",
"> c #303030",
", c #3A3A3A",
"< c #3D3D3D",
"1 c #3E3E3E",
"2 c #3F3F3F",
"3 c #414141",
"4 c #424242",
"5 c #434343",
"6 c #444444",
"7 c #454545",
"8 c #464646",
"9 c #474747",
"0 c #484848",
"q c #494949",
"w c #4A4A4A",
"e c #4B4B4B",
"r c #4C4C4C",
"t c #505050",
"y c #636363",
"u c #686868",
"i c #6C6C6C",
"p c #6E6E6E",
"a c #707070",
"s c #767676",
"d c #919191",
"f c #999999",
"g c #9A9A9A",
"h c #9D9D9D",
"j c #9F9F9F",
"k c #A0A0A0",
"l c #A2A2A2",
"z c #A3A3A3",
"x c #A6A6A6",
"c c #A7A7A7",
"v c #AAAAAA",
"b c #ABABAB",
"n c #B4B4B4",
"m c #BCBCBC",
"M c #BDBDBD",
"N c #C3C3C3",
"B c #C6C6C6",
"V c #C8C8C8",
"C c #CCCCCC",
"Z c #D0D0D0",
"A c #D7D7D7",
"S c #E1E1E1",
"D c #E2E2E2",
"F c #E6E6E6",
"G c #E7E7E7",
"H c #E8E8E8",
"J c #E9E9E9",
"K c #EAEAEA",
"L c #EBEBEB",
"P c #EFEFEF",
"I c #F0F0F0",
"U c #F1F1F1",
"Y c #F2F2F2",
"T c #F3F3F3",
"R c #F4F4F4",
"E c #F5F5F5",
"W c #F6F6F6",
"Q c #F7F7F7",
"! c #F8F8F8",
"~ c #F9F9F9",
"^ c #FAFAFA",
"/ c #FBFBFB",
"( c #FCFCFC",
") c #FDFDFD",
"_ c #FEFEFE",
"` c #FFFFFF",
/* pixels */
"`````````````````__`",
"`````````````````__`",
"`````````````````__`",
"`````````````````__`",
"`````````````````__`",
"`````````````````__`",
"`````````````````__`",
"`````````````````__`",
"`````````````````__`",
"`````````````````__`",
"`````````````````__`",
"`````````````````__`",
"`````````````````__`",
"`````````````````__`",
"`````````````````__`",
"`````````````````__`",
"`!`_`)!`)(~`Q``~_)``",
"``)`Ly%  * .  N/``(^",
"~``^)a o   $O Z`I``~",
"`_~u2:ol!LJA8 >4mQ``",
"/``w   c^Q`!,X &jT``",
")(RwX+-f`_!G4X# x/`(",
"``_t  ok~``Uw $Xv``!",
"`)`1.% b``^I7o Xk)`(",
"~`!qo @h``/Y8X  z/)(",
"```5 o v~!~F8X+Ol```",
"~(`r   c```LeX  k_``",
"~`Qw. $j`~`H3O ox`^Q",
"``)9O@Og``_P<+ Xx``(",
"`T`5 + n!`_E0.  h!``",
"`!^s3; dUYDC5 26MW~`",
"^`)!Ti O  O= @B`/`E`",
"/```Kp+ .O . $V/`~`^",
"/`~!`_T``(```S`!`(``",
"(``^``_)`U``````Y``Y"
};
