/* XPM */
static const char *o2[] = {
/* columns rows colors chars-per-pixel */
"20 35 3 1 ",
"  c #FEFEFE",
". c #FFFFFF",
"X c None",
/* pixels */
"XXXXXXXXXXXXXXXXXXXX",
"XXXXXXXXXXXXXXXXXXXX",
"XXXXXXXXXXXXXXXXXXXX",
"XXXXXXXXXXXXXXXXXXXX",
"XXXXXXXXXXXXXXXXXXXX",
"XXXXXXXXXXXXXXXXXXXX",
"XXXXXXXXXXXXXXXXXXXX",
"XXXXXXXXXXXXXXXXXXXX",
"XXXXXXXXXXXXXXXXXXXX",
"XXXXXXXXXXXXXXXXXXXX",
"XXXXXXXXXXXXXXXXXXXX",
"XXXXXXXXXXXXXXXXXXXX",
"XXXXXXXXXXXXXXXXXXXX",
"XXXXXXXXXXXXXXXXXXXX",
"XXXXXXXXXXXXXXXXXXXX",
"XXXXXXXXXXXXXXXXXXXX",
"XXXXX..........XXXXX",
"XXXXX..........XXXXX",
"XXX  ...XXXX ..  XXX",
"XXX ....XXXX ....XXX",
"XXX ....XXXX ....XXX",
"XXX ....XXXX ....XXX",
"XXX ....XXXX ....XXX",
"XXX ....XXXX ....XXX",
"XXX ....XXXX ....XXX",
"XXX ....XXXX ....XXX",
"XXX ....XXXX ....XXX",
"XXX ....XXXX ....XXX",
"XXX ....XXXX ....XXX",
"XXX  ...XXXX ..  XXX",
"XXXXX..........XXXXX",
"XXXXX..........XXXXX",
"XXXXXXXXXXXXXXXXXXXX",
"XXXXXXXXXXXXXXXXXXXX",
"XXXXXXXXXXXXXXXXXXXX"
};
