/* XPM */
static const char *p[] = {
/* columns rows colors chars-per-pixel */
"20 35 79 1 ",
"  c #000000",
". c #010101",
"X c #020202",
"o c #030303",
"O c #040404",
"+ c #050505",
"@ c #060606",
"# c #070707",
"$ c #080808",
"% c #090909",
"& c #0A0A0A",
"* c #0B0B0B",
"= c #0C0C0C",
"- c #0D0D0D",
"; c #101010",
": c #333333",
"> c #343434",
", c #3C3C3C",
"< c #3E3E3E",
"1 c #3F3F3F",
"2 c #404040",
"3 c #414141",
"4 c #424242",
"5 c #434343",
"6 c #444444",
"7 c #454545",
"8 c #464646",
"9 c #474747",
"0 c #484848",
"q c #494949",
"w c #4A4A4A",
"e c #4B4B4B",
"r c #4D4D4D",
"t c #4E4E4E",
"y c #4F4F4F",
"u c #515151",
"i c #727272",
"p c #9B9B9B",
"a c #9E9E9E",
"s c #A0A0A0",
"d c #A1A1A1",
"f c #A2A2A2",
"g c #A3A3A3",
"h c #A4A4A4",
"j c #A5A5A5",
"k c #A6A6A6",
"l c #A7A7A7",
"z c #A8A8A8",
"x c #ABABAB",
"c c #BBBBBB",
"v c #BFBFBF",
"b c #C5C5C5",
"n c #C8C8C8",
"m c #D7D7D7",
"M c #D9D9D9",
"N c #E5E5E5",
"B c #E8E8E8",
"V c #E9E9E9",
"C c #EAEAEA",
"Z c #EBEBEB",
"A c #ECECEC",
"S c #EDEDED",
"D c #EEEEEE",
"F c #EFEFEF",
"G c #F0F0F0",
"H c #F1F1F1",
"J c #F2F2F2",
"K c #F4F4F4",
"L c #F5F5F5",
"P c #F6F6F6",
"I c #F7F7F7",
"U c #F8F8F8",
"Y c #F9F9F9",
"T c #FAFAFA",
"R c #FBFBFB",
"E c #FCFCFC",
"W c #FDFDFD",
"Q c #FEFEFE",
"! c #FFFFFF",
/* pixels */
"!E!E!!EQ!T!TQW!!!QQ!",
"!TTL!!!!LP!!!!UY!QQ!",
"T!!!!UYL!!!L!!!!!QQ!",
"Q!Y!TU!!KQ!RU!J!!QQ!",
"!WLQ!!TG!!WW!!!W!QQ!",
"T!!PE!!!QRT!!G!W!QQ!",
"!!Dr@    +@  @c!!QQ!",
"Y!!4 o$    oX.bT!QQ!",
"Q!Q0. .gVAZm<%:0l!!!",
"Q!Q0. .g!!!D0 o.k!!!",
"Q!Q0. .gQQWCe o j!!!",
"Q!Q0. .g!!TN9 #XhQ!!",
"Q!Q0. .g!!!De   hQQ!",
"Q!Q0. .gIEQAw +XhQ!!",
"Q!Q0. .g!!QB7 X hQ!!",
"Q!Q0. .gEQ!Sr o j!!!",
"!!T3% OkY!!S6 oXk!Y!",
"EE!0  -s!!!H7O  k!!!",
"!WY1;  fTGEZ5 X#fT!!",
"E!U2& opJSIM9 >5cT!E",
"Q!!u  .+@    ;nUD!!!",
"!QPtOo   O=  .v!!!!E",
"Q!!4  =x!WEU!H!Y!RWI",
"!H!8 + d!W!Y!!I!QW!Y",
"!!Uyo $a!!!!!!!!!QQ!",
"RPY2  .k!!!!!!!!!QQ!",
"WW!tX* s!!!!!!!!!QQ!",
"!WW, Ooh!!!!!!!!!QQ!",
"!!Piwq9z!!!!!!!!!QQ!",
"K!!F!QK!!!!!!!!!!QQ!",
"!W!I!!QW!!!!!!!!!QQ!",
"!K!W!TW!!!!!!!!!!QQ!",
"!!!!!!!!!!!!!!!!!Y!T",
"QQQQQQQQQQQQQQQQ!E!!",
"!!!!!!!!!!!!!!!!J!!J"
};
