/* XPM */
static const char *pontofinal[] = {
/* columns rows colors chars-per-pixel */
"20 35 34 1 ",
"  c #000000",
". c #020202",
"X c #030303",
"o c #050505",
"O c #080808",
"+ c #0C0C0C",
"@ c #414141",
"# c #464646",
"$ c #525252",
"% c #535353",
"& c #9B9B9B",
"* c #A0A0A0",
"= c #A2A2A2",
"- c #BABABA",
"; c #BCBCBC",
": c #C1C1C1",
"> c #C3C3C3",
", c #ECECEC",
"< c #EEEEEE",
"1 c #F0F0F0",
"2 c #F2F2F2",
"3 c #F3F3F3",
"4 c #F4F4F4",
"5 c #F5F5F5",
"6 c #F6F6F6",
"7 c #F7F7F7",
"8 c #F8F8F8",
"9 c #F9F9F9",
"0 c #FAFAFA",
"q c #FBFBFB",
"w c #FCFCFC",
"e c #FDFDFD",
"r c #FEFEFE",
"t c #FFFFFF",
/* pixels */
"tttttttttttttttttrrt",
"tttttttttttttttttrrt",
"tttttttttttttttttrrt",
"tttttttttttttttttrrt",
"tttttttttttttttttrrt",
"tttttttttttttttttrrt",
"tttttttttttttttttrrt",
"tttttttttttttttttrrt",
"tttttttttttttttttrrt",
"tttttttttttttttttrrt",
"tttttttttttttttttrrt",
"tttttttttttttttttrrt",
"tttttttttttttttttrrt",
"tttttttttttttttttrrt",
"tttttttttttttttttrrt",
"tttttttttttttttttrrt",
"tttttttttttttttttrrt",
"tttttttttttttttttrrt",
"tttttttttttttttttrrt",
"tttttttttttttttttrrt",
"tttttttttttttttttrrt",
"tttttttttttttttttrrt",
"tttttttttttttttttrrt",
"tttttttttttttttttrrt",
"t8tqqt3ttttttttttrrt",
"ttttttq7tttttttttrrt",
"7t906<tttttttttttrrt",
"tttrttt2tttttttttrrt",
"t4t>-:;,tttttttttrrt",
"t8t%  +&tttttttttrrt",
"tqt#X o=tttttttttrrt",
"ett@O .=tttttttttrrt",
"tt7$   *ttttttttt9t0",
"5tt7ttqtrrrrrrrrtwtt",
"tt8tt4t1tttttttt2tt2"
};
