/* XPM */
static const char *q[] = {
/* columns rows colors chars-per-pixel */
"20 35 80 1 ",
"  c #010102",
". c #090000",
"X c #0C0C04",
"o c #060709",
"O c #050A0C",
"+ c #0A0908",
"@ c #050F11",
"# c #081214",
"$ c #1B1C1E",
"% c #202123",
"& c #353130",
"* c #3E3A39",
"= c #53493F",
"- c #3F3F41",
"; c #3D4248",
": c #434444",
"> c #4A4542",
", c #4E4946",
"< c #494949",
"1 c #514C49",
"2 c #464D51",
"3 c #67625F",
"4 c #5F6062",
"5 c #636466",
"6 c #67686A",
"7 c #6B6C6E",
"8 c #736E6B",
"9 c #686D73",
"0 c #0667B6",
"q c #1C71B1",
"w c #1574B8",
"e c #2673A7",
"r c #006EC6",
"t c #006DC9",
"y c #0274CC",
"u c #0B76C8",
"i c #0279CD",
"p c #0076D2",
"a c #047AD4",
"s c #0A7CD4",
"d c #027CDA",
"f c #007BE4",
"g c #0E80D8",
"h c #2389D4",
"j c #0080E1",
"k c #92928A",
"l c #9C9C94",
"z c #9C9C9C",
"x c #A59890",
"c c #A4A49C",
"v c #B9A79B",
"b c #9AAAB9",
"n c #A4A4A4",
"m c #ACACA4",
"M c #A4A5A9",
"N c #B8B8B8",
"B c #A6BBCC",
"V c #DCDCDC",
"C c #FFF1D9",
"Z c #E5E5E5",
"A c #EBEBEB",
"S c #F8EEE4",
"D c #F2EEED",
"F c #FFF5E6",
"G c #FFF8E2",
"H c #F7F2EF",
"J c #FCF3EB",
"K c #FFFAEB",
"L c #E5ECF0",
"P c #E4F2F5",
"I c #EEF1F5",
"U c #EAF4F8",
"Y c #E3FEFF",
"T c #EEFCFE",
"R c #F4F4F4",
"E c #FBF6F4",
"W c #FEFBF4",
"Q c #F3F6FA",
"! c #F4FDFF",
"~ c #FEFEFE",
/* pixels */
"~s!W~~!~~~~~~~~~~~E~",
"~a!W~~!W~~~~~~~~~~~~",
"Wr!~~~!W~~~~~~~~~~~~",
"~y!EE~!~~~~~~~~~~~~~",
"~y~~~~!~~~~~~~~~~~~~",
"~y!J~RUWW~~~~~~~Z~Q~",
"~y!~H7#         N~EW",
"~r!~W5          z~~~",
"~r!8&% lAARV:   n~~~",
"~r!1XO n~W~Z:   n~~~",
"~y!=   n~~~A<   n~~~",
"Wi!<  oc~~~A:   n~~~",
"~s~>. oc~~~A<   n~~~",
"~p!> o c~~~A<   n~~~",
"~y!1.  n~~~Z:   n~~~",
"~i!,   m~~~A<   n~~~",
"Ws!<.O z~~~A<   n~~~",
"~y!= O m~W~A:  +n~~~",
"Ry!>.  c~W~I:   n~~~",
"~a!5*$#kZIRV<. on~~~",
"~r~~E5 + o      n~~~",
"~yPWE6@     O + n~~~",
"Wg!~~~!WR~~Z:   n~~~",
"~s!~W~!~~~ER=o  n~~~",
"Ku!~!!!~!!!L2  oM~W~",
"!a!~WW~FWWWF=...b!!~",
"TfT~ER!~Q!~R;   vJWW",
"W0WKW~!~~~~A; oox~~~",
"~r!W~~!R~!QL92;;BYY!",
"!dT!!~WKWWW~JW~~CW~~",
"ChP!TTUW~!!!!~!WK!!!",
"!fewidgiyasysaydadtq",
"~~~~~~~~~~~~~~~~~W~~",
"~~~~~~~~~~~~~~~~~~~~",
"~~~~~~~~~~~~~~~~R~~R"
};
