/* XPM */
static const char *r1[] = {
/* columns rows colors chars-per-pixel */
"20 35 57 1 ",
"  c #000000",
". c #010101",
"X c #020202",
"o c #030303",
"O c #040404",
"+ c #050505",
"@ c #060606",
"# c #070707",
"$ c #080808",
"% c #0A0A0A",
"& c #0C0C0C",
"* c #0D0D0D",
"= c #101010",
"- c #424242",
"; c #434343",
": c #444444",
"> c #464646",
", c #484848",
"< c #494949",
"1 c #4A4A4A",
"2 c #4B4B4B",
"3 c #4C4C4C",
"4 c #4E4E4E",
"5 c #525252",
"6 c #919191",
"7 c #9B9B9B",
"8 c #9E9E9E",
"9 c #A0A0A0",
"0 c #A2A2A2",
"q c #A3A3A3",
"w c #A5A5A5",
"e c #AEAEAE",
"r c #C3C3C3",
"t c #C6C6C6",
"y c #C7C7C7",
"u c #D5D5D5",
"i c #DEDEDE",
"p c #E1E1E1",
"a c #E5E5E5",
"s c #E7E7E7",
"d c #E8E8E8",
"f c #EBEBEB",
"g c #F0F0F0",
"h c #F2F2F2",
"j c #F3F3F3",
"k c #F4F4F4",
"l c #F5F5F5",
"z c #F6F6F6",
"x c #F7F7F7",
"c c #F8F8F8",
"v c #F9F9F9",
"b c #FAFAFA",
"n c #FBFBFB",
"m c #FCFCFC",
"M c #FDFDFD",
"N c #FEFEFE",
"B c #FFFFFF",
/* pixels */
"BBBBBBBBBBBBBBBBBNNB",
"BBBBBBBBBBBBBBBBBNNB",
"BBBBBBBBBBBBBBBBBNNB",
"BBBBBBBBBBBBBBBBBNNB",
"BBBBBBBBBBBBBBBBBNNB",
"BBBBBBBBBBBBBBBBBNNB",
"BBBBBBBBBBBBBBBBBNNB",
"BBBBBBBBBBBBBBBBBNNB",
"BBBBBBBBBBBBBBBBBNNB",
"BBBBBBBBBBBBBBBBBNNB",
"BBBBBBBBBBBBBBBBBNNB",
"BBBBBBBBBBBBBBBBBNNB",
"BBBBBBBBBBBBBBBBBNNB",
"BBBBBBBBBBBBBBBBBNNB",
"BBBBBBBBBBBBBBBBBNNB",
"BBBBBBBBBBBBBBBBBNNB",
"BlBBmBnBBNBBbbBcNNBz",
"cBv< Xo X @  $rBBMBx",
"NBN-*=  @  $& yhNBBM",
"mbB2  #qpjsu; 6tiBBB",
"BBx3 o 7BBBc> $ ekBm",
"bBn1 %OebhBa>oO 8mBB",
"nNB4   9BmBd4Xo.wBBB",
"BBB:+ &0MNnf1  XqMxB",
"BBM,  .qBBBBBBBBBNNB",
"BBM,  .qBBBBBBBBBNNB",
"BBM,  .qBBBBBBBBBNNB",
"BBM,  .qBBBBBBBBBNNB",
"BBM,  .qBBBBBBBBBNNB",
"BBM,  .qBBBBBBBBBNNB",
"BBM,  .qBBBBBBBBBNNB",
"BBM,  .qBBBBBBBBBNNB",
"BBx5   9BBBBBBBBBvBb",
"lBBxBBnBNNNNNNNNBmBB",
"BBcBBkBgBBBBBBBBhBBh"
};
