/* XPM */
static const char *s[] = {
/* columns rows colors chars-per-pixel */
"20 35 87 1 ",
"  c #000000",
". c #010101",
"X c #020202",
"o c #030303",
"O c #040404",
"+ c #050505",
"@ c #060606",
"# c #070707",
"$ c #080808",
"% c #090909",
"& c #0A0A0A",
"* c #0B0B0B",
"= c #0D0D0D",
"- c #111111",
"; c #121212",
": c #141414",
"> c #1F1F1F",
", c #222222",
"< c #242424",
"1 c #303030",
"2 c #373737",
"3 c #383838",
"4 c #3A3A3A",
"5 c #3E3E3E",
"6 c #404040",
"7 c #414141",
"8 c #424242",
"9 c #434343",
"0 c #444444",
"q c #454545",
"w c #474747",
"e c #484848",
"r c #4B4B4B",
"t c #4E4E4E",
"y c #5F5F5F",
"u c #656565",
"i c #696969",
"p c #6A6A6A",
"a c #6E6E6E",
"s c #8C8C8C",
"d c #919191",
"f c #929292",
"g c #9D9D9D",
"h c #A2A2A2",
"j c #A3A3A3",
"k c #A4A4A4",
"l c #A8A8A8",
"z c #A9A9A9",
"x c #AEAEAE",
"c c #B4B4B4",
"v c #BABABA",
"b c #C2C2C2",
"n c #CCCCCC",
"m c #CFCFCF",
"M c #D1D1D1",
"N c #D4D4D4",
"B c #D6D6D6",
"V c #D7D7D7",
"C c #DDDDDD",
"Z c #DEDEDE",
"A c #DFDFDF",
"S c #E3E3E3",
"D c #E5E5E5",
"F c #E6E6E6",
"G c #E7E7E7",
"H c #E8E8E8",
"J c #EAEAEA",
"K c #ECECEC",
"L c #EDEDED",
"P c #EEEEEE",
"I c #EFEFEF",
"U c #F0F0F0",
"Y c #F1F1F1",
"T c #F2F2F2",
"R c #F3F3F3",
"E c #F4F4F4",
"W c #F5F5F5",
"Q c #F6F6F6",
"! c #F7F7F7",
"~ c #F8F8F8",
"^ c #F9F9F9",
"/ c #FAFAFA",
"( c #FBFBFB",
") c #FCFCFC",
"_ c #FDFDFD",
"` c #FEFEFE",
"' c #FFFFFF",
/* pixels */
"'''''''''''''''''``'",
"'''''''''''''''''``'",
"'''''''''''''''''``'",
"'''''''''''''''''``'",
"'''''''''''''''''``'",
"'''''''''''''''''``'",
"'''''''''''''''''``'",
"'''''''''''''''''``'",
"'''''''''''''''''``'",
"'''''''''''''''''``'",
"'''''''''''''''''``'",
"'''''''''''''''''``'",
"'''''''''''''''''``'",
"'''''''''''''''''``'",
"'''''''''''''''''``'",
"'''''''''''''''''``'",
"`''/')'`'W''(W'_''!!",
"'_~'Wpo #  . 3Z'U)/'",
"!''/Qi - *X#.,B_''('",
"'~)Mvw#sHDJV71NJU'``",
"''(9 +#h''/Gt  .jE'_",
"^J`r   l'T'L0#  x/'^",
"'''0 O*g`_''__!'E'`_",
"~'It=  z'''~'_')'(_'",
"~''/_u . $ X+>C)`^''",
"''W'Ly: @  OO2A)''!/",
"'T'''KHFFWWB6<dbV'('",
"'!_'^''''^~U8$% l'''",
")'!EUAS/'/'!5O  k''~",
"_'We O;h'''Yqoo g^'~",
"'`'w   fJUPM6 $XcE'`",
"``(^'i+Oo  & 3n'!''~",
"('''Ja+    O 4m''^'/",
"('^~'`R'''`'!I'Y')''",
")''/''`_/_!''''^T''T"
};
