/* XPM */
static const char *t[] = {
/* columns rows colors chars-per-pixel */
"20 35 68 1 ",
"  c #000000",
". c #010101",
"X c #020202",
"o c #030303",
"O c #040404",
"+ c #050505",
"@ c #060606",
"# c #070707",
"$ c #080808",
"% c #090909",
"& c #0D0D0D",
"* c #0E0E0E",
"= c #2E2E2E",
"- c #3A3A3A",
"; c #3F3F3F",
": c #414141",
"> c #434343",
", c #444444",
"< c #454545",
"1 c #474747",
"2 c #494949",
"3 c #4A4A4A",
"4 c #4B4B4B",
"5 c #4C4C4C",
"6 c #9C9C9C",
"7 c #9D9D9D",
"8 c #9F9F9F",
"9 c #A0A0A0",
"0 c #A1A1A1",
"q c #A2A2A2",
"w c #A3A3A3",
"e c #A4A4A4",
"r c #A5A5A5",
"t c #A9A9A9",
"y c #AAAAAA",
"u c #ACACAC",
"i c #B5B5B5",
"p c #BDBDBD",
"a c #CBCBCB",
"s c #CFCFCF",
"d c #D8D8D8",
"f c #DCDCDC",
"g c #E2E2E2",
"h c #E6E6E6",
"j c #E7E7E7",
"k c #E8E8E8",
"l c #E9E9E9",
"z c #EAEAEA",
"x c #EBEBEB",
"c c #ECECEC",
"v c #EDEDED",
"b c #EEEEEE",
"n c #EFEFEF",
"m c #F1F1F1",
"M c #F2F2F2",
"N c #F3F3F3",
"B c #F4F4F4",
"V c #F5F5F5",
"C c #F6F6F6",
"Z c #F7F7F7",
"A c #F8F8F8",
"S c #F9F9F9",
"D c #FAFAFA",
"F c #FBFBFB",
"G c #FCFCFC",
"H c #FDFDFD",
"J c #FEFEFE",
"K c #FFFFFF",
/* pixels */
"KKKKKKKKKKKKKKKKKJJK",
"KKKKKKKKKKKKKKKKKJJK",
"KKKKKKKKKKKKKKKKKJJK",
"KKKKKKKKKKKKKKKKKJJK",
"KKKKKKKKKKKKKKKKKJJK",
"KKKKKKKKKKKKKKKKKJJK",
"KKKKKKKKKKKKKKKKKJJK",
"KKKKKKKKKKKKKKKKKJJK",
"KAKKFKKKJKDKKSKKKJJK",
"KSJKKKJSKKNHKKKCKJJK",
"KJJKKHJKDKKKKBKKKJJK",
"FKKKJDKKKJBNKKKDKJJK",
"GKGKKHKvGKHZKDKKKJJK",
"KKVKKKCiO.#5fKKDKJJK",
"KKZKJKA6  o4xKGKKJJK",
"KKKKBKKrOO ,NKVKKJJK",
"ZKKbKSZt + <cKAKCKnS",
"KGD2  $.   o$ oXeZKK",
"KJK5 Xo +X %  # uAKK",
"ZJKgljx0 O.,amnnMKZF",
"KKAKKDK6 o ;JKSKKKFK",
"DKHADSKr  o>MBJKFKKK",
"GKKKHKKq# $4xGKKKKJD",
"GKCKJZK9 Xo<jKJHGDKK",
"DKKGDJGw  &>vKKKKKKK",
"KDJKKKK0@  :hKAAKGZF",
"KZGKJKJ8   3bKKKKJJK",
"KAKKVFKr .X2zCGKJFKK",
"DFKKSKKr  X,MBKKJAGK",
"KKKHKKS7 X 1SKKNKKFH",
"KKJGKDCp<1*<akNbjKKF",
"SKJKKCKDKd= %O XyVKS",
"KKKKKKKKKs- O   9SKF",
"JJJJJJJJmKnZKJKKKKDK",
"KKKKKKKKSKKKKZHDKHKS"
};
