/* XPM */
static const char *t2[] = {
/* columns rows colors chars-per-pixel */
"20 35 3 1 ",
"  c #FEFEFE",
". c #FFFFFF",
"X c None",
/* pixels */
"XXXXXXXXXXXXXXXXXXXX",
"XXXXXXXXXXXXXXXXXXXX",
"XXXXXXXXXXXXXXXXXXXX",
"XXXXXXXXXXXXXXXXXXXX",
"XXXXXXXXXXXXXXXXXXXX",
"XXXXXXXXXXXXXXXXXXXX",
"XXXXXXXXXXXXXXXXXXXX",
"XXXXXXXXXXXXXXXXXXXX",
"XXXXXXXXXXXXXXXXXXXX",
"XXXXXXXXXXXXXXXXXXXX",
"XXXXXXXXXXXXXXXXXXXX",
"XXXXXXXXXXXXXXXXXXXX",
"XXXXXXX.... XXXXXXXX",
"XXXXXXX.... XXXXXXXX",
"XXXXXXX.... XXXXXXXX",
"XXXXXXX.... XXXXXXXX",
"XXX .............XXX",
"XXX .............XXX",
"XXXXXXX.... XXXXXXXX",
"XXXXXXX.... XXXXXXXX",
"XXXXXXX.... XXXXXXXX",
"XXXXXXX.... XXXXXXXX",
"XXXXXXX.... XXXXXXXX",
"XXXXXXX.... XXXXXXXX",
"XXXXXXX.... XXXXXXXX",
"XXXXXXX.... XXXXXXXX",
"XXXXXXX.... XXXXXXXX",
"XXXXXXX.... XXXXXXXX",
"XXXXXXX.... XXXXXXXX",
"XXXXXXX  .. XXXXXXXX",
"XXXXXXXXX........XXX",
"XXXXXXXXX........XXX",
"XXXXXXXXXXXXXXXXXXXX",
"XXXXXXXXXXXXXXXXXXXX",
"XXXXXXXXXXXXXXXXXXXX"
};
