/* XPM */
static const char *u[] = {
/* columns rows colors chars-per-pixel */
"20 35 74 1 ",
"  c #000000",
". c #010101",
"X c #020202",
"o c #030303",
"O c #040404",
"+ c #050505",
"@ c #060606",
"# c #070707",
"$ c #080808",
"% c #0A0A0A",
"& c #0B0B0B",
"* c #0D0D0D",
"= c #0E0E0E",
"- c #1D1D1D",
"; c #3E3E3E",
": c #3F3F3F",
"> c #414141",
", c #434343",
"< c #444444",
"1 c #454545",
"2 c #474747",
"3 c #484848",
"4 c #494949",
"5 c #4A4A4A",
"6 c #4B4B4B",
"7 c #4C4C4C",
"8 c #4D4D4D",
"9 c #4E4E4E",
"0 c #505050",
"q c #515151",
"w c #6C6C6C",
"e c #6E6E6E",
"r c #767676",
"t c #919191",
"y c #949494",
"u c #999999",
"i c #9A9A9A",
"p c #9D9D9D",
"a c #9F9F9F",
"s c #A0A0A0",
"d c #A2A2A2",
"f c #A3A3A3",
"g c #A4A4A4",
"h c #A5A5A5",
"j c #A7A7A7",
"k c #A8A8A8",
"l c #A9A9A9",
"z c #AAAAAA",
"x c #ABABAB",
"c c #B1B1B1",
"v c #B3B3B3",
"b c #B4B4B4",
"n c #C9C9C9",
"m c #D9D9D9",
"M c #E5E5E5",
"N c #E8E8E8",
"B c #EAEAEA",
"V c #ECECEC",
"C c #EDEDED",
"Z c #EEEEEE",
"A c #F0F0F0",
"S c #F3F3F3",
"D c #F4F4F4",
"F c #F5F5F5",
"G c #F6F6F6",
"H c #F7F7F7",
"J c #F8F8F8",
"K c #F9F9F9",
"L c #FAFAFA",
"P c #FBFBFB",
"I c #FCFCFC",
"U c #FDFDFD",
"Y c #FEFEFE",
"T c #FFFFFF",
/* pixels */
"TTTTTTTTTTTTTTTTTYYT",
"TTTTTTTTTTTTTTTTTYYT",
"TTTTTTTTTTTTTTTTTYYT",
"TTTTTTTTTTTTTTTTTYYT",
"TTTTTTTTTTTTTTTTTYYT",
"TTTTTTTTTTTTTTTTTYYT",
"TTTTTTTTTTTTTTTTTYYT",
"TTTTTTTTTTTTTTTTTYYT",
"TTTTTTTTTTTTTTTTTYYT",
"TTTTTTTTTTTTTTTTTYYT",
"TTTTTTTTTTTTTTTTTYYT",
"TTTTTTTTTTTTTTTTTYYT",
"TTTTTTTTTTTTTTTTTYYT",
"TTTTTTTTTTTTTTTTTYYT",
"TTTTTTTTTTTTTTTTTYYT",
"TTTTTTTTTTTTTTTTTYYT",
"IUTFTTTTTTKTSPYYHTGT",
"TYY0  +yYTLmq* .cAPT",
"YLT; & vJTTB6   uHTT",
"KTT6&  sTITC7.  lTTL",
"PTD4  &hTDTC< X@fTYU",
"TKI8o%$iTKTA3   aYTT",
"LJT1   xTLTB9@o kTTY",
"ITK4& XdITTM,  XgIYY",
"KTJ4o @pLTTV:  @gYTT",
"TTT, o zTTIZ3#  gYTT",
"KIT7   jTLTS1   gYTT",
"KTH5. $aYSUZ< O%gYTT",
"TTU2O@OiTITB6   gYTT",
"TST, + bKYTN0  ogYTT",
"TJLr>- tZDAn8o  gYTT",
"LTUJSw O   =  +.gYTT",
"PTTTBe+         sKTP",
"PTKJTYSTTTTTTTTTTTLT",
"ITTLTTYUUUUUUUUUTUTK"
};
