/* XPM */
static const char *v[] = {
/* columns rows colors chars-per-pixel */
"20 35 84 1 ",
"  c #000000",
". c #010101",
"X c #020202",
"o c #030303",
"O c #040404",
"+ c #050505",
"@ c #060606",
"# c #070707",
"$ c #090909",
"% c #0A0A0A",
"& c #0B0B0B",
"* c #0C0C0C",
"= c #0D0D0D",
"- c #0E0E0E",
"; c #272727",
": c #292929",
"> c #2A2A2A",
", c #343434",
"< c #363636",
"1 c #3A3A3A",
"2 c #3B3B3B",
"3 c #3E3E3E",
"4 c #404040",
"5 c #414141",
"6 c #424242",
"7 c #434343",
"8 c #444444",
"9 c #4A4A4A",
"0 c #4C4C4C",
"q c #4D4D4D",
"w c #4E4E4E",
"e c #525252",
"r c #565656",
"t c #6A6A6A",
"y c #7F7F7F",
"u c #808080",
"i c #848484",
"p c #858585",
"a c #878787",
"s c #939393",
"d c #979797",
"f c #9C9C9C",
"g c #9E9E9E",
"h c #A0A0A0",
"j c #A2A2A2",
"k c #A3A3A3",
"l c #A4A4A4",
"z c #A5A5A5",
"x c #A6A6A6",
"c c #AAAAAA",
"v c #ACACAC",
"b c #B0B0B0",
"n c #B2B2B2",
"m c #B4B4B4",
"M c #B6B6B6",
"N c #B7B7B7",
"B c #C5C5C5",
"V c #D2D2D2",
"C c #D5D5D5",
"Z c #D8D8D8",
"A c #DADADA",
"S c #DCDCDC",
"D c #E2E2E2",
"F c #E3E3E3",
"G c #E6E6E6",
"H c #E7E7E7",
"J c #EDEDED",
"K c #EFEFEF",
"L c #F0F0F0",
"P c #F1F1F1",
"I c #F2F2F2",
"U c #F3F3F3",
"Y c #F4F4F4",
"T c #F5F5F5",
"R c #F6F6F6",
"E c #F7F7F7",
"W c #F8F8F8",
"Q c #F9F9F9",
"! c #FAFAFA",
"~ c #FBFBFB",
"^ c #FCFCFC",
"/ c #FDFDFD",
"( c #FEFEFE",
") c #FFFFFF",
/* pixels */
")))))))))))))))))(()",
")))))))))))))))))(()",
")))))))))))))))))(()",
")))))))))))))))))(()",
")))))))))))))))))(()",
")))))))))))))))))(()",
")))))))))))))))))(()",
")))))))))))))))))(()",
")))))))))))))))))(()",
")))))))))))))))))(()",
")))))))))))))))))(()",
")))))))))))))))))(()",
")))))))))))))))))(()",
")))))))))))))))))(()",
")))))))))))))))))(()",
")))))))))))))))))(()",
")()R)())R)!)^!()U)E)",
")Q)r  #d)))Se%  M!!)",
"(!)1 % mRR)I5 O d~))",
"))(6@X f)^/I3oO k))/",
"Y)R9  *l^(/K7  &z)Q!",
")E)w  ohQ))Jw   jW^)",
")T)q   c)))D0+#@c~))",
"))Rt8:$sLGEC4-26n!()",
")W)/)a   OX  >A()(()",
")))W)i -O  @o<FW)(()",
"())/)u o. %% ;Z~)(()",
")))/Ty= X   @,V))(()",
"/T)))SNp O%7bBUQ)(()",
")!))WTWl.O 3H))))(()",
"/(())))x.o 9L))))(()",
"/)!Q)))gX  wG^)))(()",
")Q))W)Rvo orZ)Q))Q)!",
")Q))P))L/)LR))U))^))",
")~))^/)))))))^/)I))I"
};
