/* XPM */
static const char *w[] = {
/* columns rows colors chars-per-pixel */
"20 35 104 2 ",
"   c #000000",
".  c #010101",
"X  c #020202",
"o  c #030303",
"O  c #040404",
"+  c #050505",
"@  c #060606",
"#  c #070707",
"$  c #080808",
"%  c #0A0A0A",
"&  c #0B0B0B",
"*  c #0D0D0D",
"=  c #111111",
"-  c #272727",
";  c #2D2D2D",
":  c #323232",
">  c #333333",
",  c #373737",
"<  c #3E3E3E",
"1  c #404040",
"2  c #444444",
"3  c #454545",
"4  c #464646",
"5  c #484848",
"6  c #494949",
"7  c #4B4B4B",
"8  c #4C4C4C",
"9  c #4D4D4D",
"0  c #4E4E4E",
"q  c #4F4F4F",
"w  c #505050",
"e  c #5C5C5C",
"r  c #636363",
"t  c #656565",
"y  c #666666",
"u  c #676767",
"i  c #686868",
"p  c #696969",
"a  c #6B6B6B",
"s  c #6C6C6C",
"d  c #6E6E6E",
"f  c #6F6F6F",
"g  c #727272",
"h  c #757575",
"j  c #797979",
"k  c #7C7C7C",
"l  c #7E7E7E",
"z  c #808080",
"x  c #838383",
"c  c #848484",
"v  c #858585",
"b  c #868686",
"n  c #8B8B8B",
"m  c #909090",
"M  c #929292",
"N  c #949494",
"B  c #979797",
"V  c #989898",
"C  c #9A9A9A",
"Z  c #A0A0A0",
"A  c #A2A2A2",
"S  c #A4A4A4",
"D  c #A5A5A5",
"F  c #A8A8A8",
"G  c #ABABAB",
"H  c #B1B1B1",
"J  c #B3B3B3",
"K  c #B4B4B4",
"L  c #B5B5B5",
"P  c #B8B8B8",
"I  c #B9B9B9",
"U  c #BBBBBB",
"Y  c #BDBDBD",
"T  c #C1C1C1",
"R  c #CACACA",
"E  c #CBCBCB",
"W  c #CECECE",
"Q  c #DADADA",
"!  c #DCDCDC",
"~  c #E3E3E3",
"^  c #E4E4E4",
"/  c #E5E5E5",
"(  c #E6E6E6",
")  c #E7E7E7",
"_  c #EAEAEA",
"`  c #ECECEC",
"'  c #EDEDED",
"]  c #EEEEEE",
"[  c #EFEFEF",
"{  c #F0F0F0",
"}  c #F2F2F2",
"|  c #F3F3F3",
" . c #F4F4F4",
".. c #F5F5F5",
"X. c #F6F6F6",
"o. c #F7F7F7",
"O. c #F8F8F8",
"+. c #F9F9F9",
"@. c #FAFAFA",
"#. c #FBFBFB",
"$. c #FCFCFC",
"%. c #FDFDFD",
"&. c #FEFEFE",
"*. c #FFFFFF",
/* pixels */
"*.*.*.*.*.*.*.*.*.*.*.*.*.*.*.*.*.&.&.*.",
"*.*.*.*.*.*.*.*.*.*.*.*.*.*.*.*.*.&.&.*.",
"*.*.*.*.*.*.*.*.*.*.*.*.*.*.*.*.*.&.&.*.",
"*.*.*.*.*.*.*.*.*.*.*.*.*.*.*.*.*.&.&.*.",
"*.*.*.*.*.*.*.*.*.*.*.*.*.*.*.*.*.&.&.*.",
"*.*.*.*.*.*.*.*.*.*.*.*.*.*.*.*.*.&.&.*.",
"*.*.*.*.*.*.*.*.*.*.*.*.*.*.*.*.*.&.&.*.",
"*.*.*.*.*.*.*.*.*.*.*.*.*.*.*.*.*.&.&.*.",
"*.*.*.*.*.*.*.*.*.*.*.*.*.*.*.*.*.&.&.*.",
"*.*.*.*.*.*.*.*.*.*.*.*.*.*.*.*.*.&.&.*.",
"*.*.*.*.*.*.*.*.*.*.*.*.*.*.*.*.*.&.&.*.",
"*.*.*.*.*.*.*.*.*.*.*.*.*.*.*.*.*.&.&.*.",
"*.*.*.*.*.*.*.*.*.*.*.*.*.*.*.*.*.&.&.*.",
"*.*.*.*.*.*.*.*.*.*.*.*.*.*.*.*.*.&.&.*.",
"*.*.*.*.*.*.*.*.*.*.*.*.*.*.*.*.*.&.&.*.",
"*.*.*.*.*.*.*.*.*.*.*.*.*.*.*.*.*.&.&.*.",
"$.%.*...*.*.*.*.*.%.$.*.%.*.o.#.*...*.*.",
"*.&.&.w     + N *.O.*.$.X.` g *   * l } ",
"&.@.*.<   &   J #.*.*.*.*.$.u   o o z *.",
"+.*.*.7 &     Z *.! m B ` o.i o     z @.",
"#.*. .6     & D *.Q : 8 ] o.y     O n *.",
"*.+.$.9 o % $ C ] ~ - 1 [ { p X $   k #.",
"@.O.*.3       G *.^ ; 2 { @.a   + . z *.",
"$.*.+.6 &   X A *.W > 0 ( | p X   o x $.",
"*.*.O.w     * Z *.U + 0 ) *.a       c *.",
"*.*.*.7   O X S *.E   2 ^ ] r O @   b &.",
"@.o.*.1   X   F X.R   9 X.| t o     v *.",
"*.$.X.2 % O   L *.Y $ 4 / #.f     O l *.",
"*.*.&.Z z ,   h T H z M K I w   e c P $.",
"| *.*.#.| a   =   x *.' 4 +   % G *.&.*.",
"*.*.@.%.+.d     # j &./ 5 & .   V *.%.@.",
"*.&.*.&.[ s   .   z *.' 7     . D *.#.*.",
"#.*.*.*._ d +   . k &.^ q       Z +.*.#.",
"#.*.+.O.*.&.| *.*.#.*.*.+.*.*.o.*.*.@.*.",
"$.*.*.@.*.*.&.%.*.X.X.%.#.%.*.*.*.%.*.+."
};
