/* XPM */
static const char *x1[] = {
/* columns rows colors chars-per-pixel */
"20 35 96 2 ",
"   c #000000",
".  c #010101",
"X  c #020202",
"o  c #030303",
"O  c #040404",
"+  c #050505",
"@  c #060606",
"#  c #070707",
"$  c #080808",
"%  c #090909",
"&  c #0B0B0B",
"*  c #0C0C0C",
"=  c #0F0F0F",
"-  c #1D1D1D",
";  c #1F1F1F",
":  c #2A2A2A",
">  c #2D2D2D",
",  c #393939",
"<  c #3A3A3A",
"1  c #3F3F3F",
"2  c #404040",
"3  c #434343",
"4  c #454545",
"5  c #474747",
"6  c #484848",
"7  c #494949",
"8  c #4C4C4C",
"9  c #4D4D4D",
"0  c #4E4E4E",
"q  c #505050",
"w  c #515151",
"e  c #525252",
"r  c #535353",
"t  c #565656",
"y  c #585858",
"u  c #595959",
"i  c #5A5A5A",
"p  c #656565",
"a  c #7D7D7D",
"s  c #828282",
"d  c #838383",
"f  c #868686",
"g  c #888888",
"h  c #898989",
"j  c #8C8C8C",
"k  c #8D8D8D",
"l  c #909090",
"z  c #939393",
"x  c #969696",
"c  c #989898",
"v  c #9D9D9D",
"b  c #9F9F9F",
"n  c #A0A0A0",
"m  c #A3A3A3",
"M  c #A4A4A4",
"N  c #A5A5A5",
"B  c #A8A8A8",
"V  c #A9A9A9",
"C  c #ABABAB",
"Z  c #ACACAC",
"A  c #B2B2B2",
"S  c #B4B4B4",
"D  c #B7B7B7",
"F  c #BCBCBC",
"G  c #BEBEBE",
"H  c #C4C4C4",
"J  c #C5C5C5",
"K  c #C7C7C7",
"L  c #CBCBCB",
"P  c #CCCCCC",
"I  c #D7D7D7",
"U  c #D8D8D8",
"Y  c #DBDBDB",
"T  c #E1E1E1",
"R  c #E4E4E4",
"E  c #E7E7E7",
"W  c #EBEBEB",
"Q  c #ECECEC",
"!  c #EDEDED",
"~  c #EFEFEF",
"^  c #F0F0F0",
"/  c #F1F1F1",
"(  c #F2F2F2",
")  c #F3F3F3",
"_  c #F4F4F4",
"`  c #F5F5F5",
"'  c #F6F6F6",
"]  c #F7F7F7",
"[  c #F8F8F8",
"{  c #F9F9F9",
"}  c #FAFAFA",
"|  c #FBFBFB",
" . c #FCFCFC",
".. c #FDFDFD",
"X. c #FEFEFE",
"o. c #FFFFFF",
/* pixels */
"o.o.o.o.o.o.o.o.o.o.o.o.o.o.o.o.o.X.X.o.",
"o.o.o.o.o.o.o.o.o.o.o.o.o.o.o.o.o.X.X.o.",
"o.o.o.o.o.o.o.o.o.o.o.o.o.o.o.o.o.X.X.o.",
"o.o.o.o.o.o.o.o.o.o.o.o.o.o.o.o.o.X.X.o.",
"o.o.o.o.o.o.o.o.o.o.o.o.o.o.o.o.o.X.X.o.",
"o.o.o.o.o.o.o.o.o.o.o.o.o.o.o.o.o.X.X.o.",
"o.o.o.o.o.o.o.o.o.o.o.o.o.o.o.o.o.X.X.o.",
"o.o.o.o.o.o.o.o.o.o.o.o.o.o.o.o.o.X.X.o.",
"o.o.o.o.o.o.o.o.o.o.o.o.o.o.o.o.o.X.X.o.",
"o.o.o.o.o.o.o.o.o.o.o.o.o.o.o.o.o.X.X.o.",
"o.o.o.o.o.o.o.o.o.o.o.o.o.o.o.o.o.X.X.o.",
"o.o.o.o.o.o.o.o.o.o.o.o.o.o.o.o.o.X.X.o.",
"o.o.o.o.o.o.o.o.o.o.o.o.o.o.o.o.o.X.X.o.",
"o.o.o.o.o.o.o.o.o.o.o.o.o.o.o.o.o.X.X.o.",
"o.o.o.o.o.o.o.o.o.o.o.o.o.o.o.o.o.X.X.o.",
"o.o.o.o.o.o.o.o.o.o.o.o.o.o.o.o.o.X.X.o.",
"X.o. .| [ o.o.} ..o.` o.o.}  .o.] o.o.[ ",
"....| t   X   B ..o.o.T 8   O   S _ o.X.",
"o.o.o.5   o   M o.o.o.( <   #   v { o.[ ",
"X...o.3   O % C o.o./ W e & O   M o.o.[ ",
"o.~ o.9 O     m [ o.[ R 4   o o B o.o.o.",
"o.o.o.H G e + i k g x j - @ z F I o.| o.",
"/ o.] o.X.r %   O         @ J o.o.o.] } ",
"o.) o.o.! s 9 >   + @ % w 1 L  .X.{ o.o.",
"o.| o.o.'  .o.N   %   5 Q o.( o.o.X.o.X.",
"o.o.{ o.o...{ V o     7 ` o.o.' o...X.o.",
"/ o.| o.Q d q :   O * $ 2 , K o.o.o. .o.",
"o.o...o.) p   @ O       + * J o.| o.X.X.",
"..` o.P D y   u d f h a ;   l F Y o.o.o.",
"o.o.' 6 @     Z ..o..._ r   =   A ' o.o.",
"X.o.X.5 X $ + c o.X.{ E 5   + . b ] o.o.",
"o.o...0     & m o.| o.E q       m o.o.| ",
"o.o.] e       n o.{ o.U t o   o n { o.| ",
"` o.o.] o.o.| o.o.) o.o.' ^ o...o.o.} o.",
"o.o.[ o.o._ o.^ o... .o.o.o.o.o.o...o.{ "
};
