/* XPM */
static const char *y1[] = {
/* columns rows colors chars-per-pixel */
"20 35 83 1 ",
"  c #000000",
". c #010101",
"X c #020202",
"o c #030303",
"O c #040404",
"+ c #050505",
"@ c #060606",
"# c #070707",
"$ c #080808",
"% c #090909",
"& c #0B0B0B",
"* c #0C0C0C",
"= c #0D0D0D",
"- c #0E0E0E",
"; c #111111",
": c #282828",
"> c #3D3D3D",
", c #424242",
"< c #434343",
"1 c #444444",
"2 c #454545",
"3 c #464646",
"4 c #484848",
"5 c #4A4A4A",
"6 c #4C4C4C",
"7 c #4D4D4D",
"8 c #4E4E4E",
"9 c #4F4F4F",
"0 c #505050",
"q c #525252",
"w c #545454",
"e c #5B5B5B",
"r c #5E5E5E",
"t c #606060",
"y c #676767",
"u c #6A6A6A",
"i c #6C6C6C",
"p c #999999",
"a c #9D9D9D",
"s c #A0A0A0",
"d c #A2A2A2",
"f c #A3A3A3",
"g c #A4A4A4",
"h c #A5A5A5",
"j c #A7A7A7",
"k c #A8A8A8",
"l c #A9A9A9",
"z c #AAAAAA",
"x c #B2B2B2",
"c c #B6B6B6",
"v c #BBBBBB",
"b c #C5C5C5",
"n c #D7D7D7",
"m c #E1E1E1",
"M c #E2E2E2",
"N c #E3E3E3",
"B c #E4E4E4",
"V c #E5E5E5",
"C c #E6E6E6",
"Z c #E8E8E8",
"A c #E9E9E9",
"S c #EAEAEA",
"D c #EBEBEB",
"F c #ECECEC",
"G c #EDEDED",
"H c #EEEEEE",
"J c #EFEFEF",
"K c #F0F0F0",
"L c #F1F1F1",
"P c #F2F2F2",
"I c #F3F3F3",
"U c #F4F4F4",
"Y c #F5F5F5",
"T c #F6F6F6",
"R c #F7F7F7",
"E c #F8F8F8",
"W c #F9F9F9",
"Q c #FAFAFA",
"! c #FBFBFB",
"~ c #FCFCFC",
"^ c #FDFDFD",
"/ c #FEFEFE",
"( c #FFFFFF",
/* pixels */
"(R(Q(/(/~(W~((~Q/W^(",
"W(^Q(R(~Q(Q(Q^((((Q(",
"(((L((U((/!(WW(!G(~Q",
"^E/9  #l^((M8o Xc/(~",
"(Q(3 O a(!~Dq*o pQ(/",
"E(E6@ &k!((J>  +f((~",
"^((7  Xs((EZ4=  z(/^",
"(T(2 % jT((J2@  sW/(",
"((^4  .f(^(A4   g/((",
"((^4  .f(^(A4   g/((",
"((^4  .f(^(A4   g/((",
"((^4  .f(^(A4   g/((",
"((^4  .f(^(A4   g/((",
"((^4  .f(^(A4   g/((",
"((^4  .f(^(A4   g/((",
"((^4  .f(^(A4   g/((",
"!Y(y<: hGYmnw # l!!^",
"(((/Bu*   %#   oj~((",
"I(I((r  *    ;@ogR((",
"(^(R(((W(/(H4 . l!!/",
"I~(!/!(((!QE, =Xj(((",
"((H5-  hR((Z,@ Op!((",
"(T(1 # d(((N0 $.x~Q(",
"W((CFe.aGNDV1 vAS(Y/",
"/W!(Rt .   oX.bQ(//(",
"^(((Fi&  +@  @v((//(",
"((QR(YP(/!Q((K(^(//(",
"!(((((((((^^(((^(//(",
"((!QTQ^(U/(!E(P((//(",
"RQ!((((((((Y(((((//(",
"((Q(!(T(YT((((EW(//(",
"E(!(/(W((Q(Q/^(((//(",
"(((((((((((((((((W(Q",
"////////////////(~((",
"((((((((((((((((P((P"
};
