/* XPM */
static const char *z[] = {
/* columns rows colors chars-per-pixel */
"20 35 74 1 ",
"  c #000000",
". c #010101",
"X c #020202",
"o c #030303",
"O c #040404",
"+ c #050505",
"@ c #060606",
"# c #070707",
"$ c #080808",
"% c #0A0A0A",
"& c #0C0C0C",
"* c #2C2C2C",
"= c #353535",
"- c #363636",
"; c #3E3E3E",
": c #3F3F3F",
"> c #424242",
", c #474747",
"< c #484848",
"1 c #4D4D4D",
"2 c #515151",
"3 c #606060",
"4 c #676767",
"5 c #6C6C6C",
"6 c #7B7B7B",
"7 c #828282",
"8 c #848484",
"9 c #969696",
"0 c #9B9B9B",
"q c #9D9D9D",
"w c #A0A0A0",
"e c #A4A4A4",
"r c #A8A8A8",
"t c #AAAAAA",
"y c #B4B4B4",
"u c #B8B8B8",
"i c #BDBDBD",
"p c #BFBFBF",
"a c #C0C0C0",
"s c #C3C3C3",
"d c #C4C4C4",
"f c #C7C7C7",
"g c #C9C9C9",
"h c #CECECE",
"j c #D1D1D1",
"k c #D5D5D5",
"l c #D7D7D7",
"z c #E1E1E1",
"x c #E3E3E3",
"c c #E4E4E4",
"v c #E7E7E7",
"b c #E8E8E8",
"n c #E9E9E9",
"m c #EAEAEA",
"M c #EBEBEB",
"N c #ECECEC",
"B c #EDEDED",
"V c #EEEEEE",
"C c #EFEFEF",
"Z c #F1F1F1",
"A c #F2F2F2",
"S c #F3F3F3",
"D c #F4F4F4",
"F c #F5F5F5",
"G c #F6F6F6",
"H c #F7F7F7",
"J c #F8F8F8",
"K c #F9F9F9",
"L c #FAFAFA",
"P c #FBFBFB",
"I c #FCFCFC",
"U c #FDFDFD",
"Y c #FEFEFE",
"T c #FFFFFF",
/* pixels */
"TTTTTTTTTTTTTTTTTYYT",
"TTTTTTTTTTTTTTTTTYYT",
"TTTTTTTTTTTTTTTTTYYT",
"TTTTTTTTTTTTTTTTTYYT",
"TTTTTTTTTTTTTTTTTYYT",
"TTTTTTTTTTTTTTTTTYYT",
"TTTTTTTTTTTTTTTTTYYT",
"TTTTTTTTTTTTTTTTTYYT",
"TTTTTTTTTTTTTTTTTYYT",
"TTTTTTTTTTTTTTTTTYYT",
"TTTTTTTTTTTTTTTTTYYT",
"TTTTTTTTTTTTTTTTTYYT",
"TTTTTTTTTTTTTTTTTYYT",
"TTTTTTTTTTTTTTTTTYYT",
"TTTTTTTTTTTTTTTTTYYT",
"TTTTTTTTTTTTTTTTTYYT",
"UTLTTJTUYITFTKTTHTTJ",
"HTT> .$ + . X.o yDTY",
"TPT;+    $XO@O @qKTJ",
"TKLbvcmCAxMh-#%.eTTJ",
"UTDTTYTLGTTS1   rTTT",
"KTTJJPTYTPNn>*rplTPT",
"TLTPTTTTTa&o =jUTTHL",
"YTITTUTILdX @*kTYKTT",
"TPKKTTUr X ,CYYTTTTT",
"BTTIPTT0X .,bTTUTIHP",
"TPNTUe83 4sfAITTTYYT",
"TTTTS5X+O7TLKTTPYPTT",
"PGYgu1 6ihTTTTLLYJIT",
"UTT:oo eTGTYKKTTTTPU",
"TDI1 X%9VDCVMCZzvTTP",
"TKT2 & + X @. OOtFTK",
"TTL<  XO        wKTP",
"TATJTTHTTTTTTTTTTTLT",
"THUPTTKTUUUUUUUUTUTK"
};
